<svg id="svg" xmlns="http://www.w3.org/2000/svg" xmlns:xlink="http://www.w3.org/1999/xlink" width="400" height="400" viewBox="0, 0, 400,400"><g id="svgg"><path id="path0" d="M181.250 57.426 C 65.083 73.309,15.287 214.266,96.039 298.633 C 180.849 387.240,329.671 336.633,342.925 214.679 C 352.840 123.454,272.174 44.994,181.250 57.426 M225.781 165.648 C 233.029 166.779,241.408 169.408,241.907 170.709 C 242.984 173.516,238.998 182.204,236.825 181.788 C 235.692 181.571,231.250 180.627,226.953 179.691 C 211.555 176.335,202.482 180.281,206.452 188.607 C 207.795 191.422,209.207 192.226,228.371 201.090 C 241.955 207.373,246.244 212.594,246.308 222.927 C 246.422 241.247,228.838 250.177,202.971 244.938 C 188.761 242.060,186.536 240.136,189.460 233.255 C 192.128 226.978,191.954 227.032,200.414 229.905 C 216.728 235.446,229.931 233.105,230.954 224.491 C 231.658 218.569,229.074 216.248,215.436 210.555 C 196.333 202.579,190.625 197.034,190.625 186.451 C 190.625 170.376,204.284 162.294,225.781 165.648 M300.939 167.881 C 320.486 175.492,328.184 212.895,314.389 233.224 C 312.095 236.604,312.470 237.371,317.641 239.874 C 319.677 240.860,321.091 242.078,321.086 242.843 C 321.075 244.730,317.394 252.344,316.493 252.344 C 314.848 252.344,311.116 250.551,306.435 247.511 L 301.542 244.334 297.841 245.409 C 287.119 248.524,271.996 246.041,264.210 239.887 C 249.452 228.221,248.100 191.802,261.845 176.148 C 270.489 166.302,287.595 162.685,300.939 167.881 M189.063 167.873 C 189.063 168.250,188.589 168.951,188.011 169.431 C 187.433 169.911,186.325 171.712,185.549 173.433 L 184.138 176.563 178.202 176.508 C 168.622 176.419,80.479 172.093,84.766 171.921 C 86.914 171.836,109.238 170.781,134.375 169.578 C 187.947 167.013,189.063 166.979,189.063 167.873 M278.834 180.724 C 262.279 189.461,263.650 228.398,280.663 232.682 C 290.113 235.061,292.190 233.781,287.849 228.253 C 283.701 222.968,283.608 222.095,286.914 219.464 C 292.623 214.920,292.674 214.927,297.204 220.703 C 298.889 222.852,300.551 224.936,300.897 225.334 C 301.964 226.561,304.525 219.491,305.433 212.810 C 308.765 188.289,295.293 172.037,278.834 180.724 M182.847 190.039 C 182.866 191.006,183.377 193.190,183.983 194.892 C 185.330 198.673,193.428 198.552,132.422 195.660 C 103.633 194.295,82.363 193.108,85.156 193.022 C 90.577 192.854,180.192 188.555,181.836 188.383 C 182.373 188.327,182.828 189.072,182.847 190.039 M200.917 212.405 C 204.065 214.072,209.277 216.445,212.500 217.679 L 218.359 219.922 212.109 220.097 C 208.672 220.193,177.207 218.954,142.188 217.343 L 78.516 214.414 130.469 212.000 C 200.170 208.760,193.963 208.724,200.917 212.405 M180.820 233.959 C 180.197 235.449,179.688 237.383,179.688 238.256 C 179.688 240.293,181.612 240.307,129.688 237.891 C 106.699 236.821,85.957 235.895,83.594 235.833 C 78.324 235.695,162.866 231.510,173.984 231.359 L 181.952 231.250 180.820 233.959 " stroke="none" fill="#000000" fill-rule="evenodd"></path></g></svg>