<svg id="svg" version="1.1" xmlns="http://www.w3.org/2000/svg" xmlns:xlink="http://www.w3.org/1999/xlink" width="400" height="539.5659432387313" viewBox="0, 0, 400,539.5659432387313"><g id="svgg"><path id="path0" d="M26.768 9.828 C 23.331 11.042,18.601 15.507,16.889 19.153 C 15.021 23.135,15.024 514.795,16.893 519.638 C 18.339 523.385,23.365 528.310,27.082 529.622 C 29.306 530.406,56.331 530.551,200.668 530.551 L 371.619 530.551 374.772 528.984 C 378.365 527.198,382.058 523.403,383.791 519.714 C 384.918 517.317,384.975 505.230,384.975 269.783 L 384.975 22.371 383.538 19.261 C 381.631 15.137,377.305 11.041,373.479 9.737 C 368.780 8.136,31.309 8.224,26.768 9.828 M362.651 21.494 C 364.330 22.480,366.583 24.558,367.660 26.111 L 369.616 28.934 369.616 268.773 L 369.616 508.612 367.774 511.395 C 366.761 512.926,364.679 515.008,363.148 516.021 L 360.365 517.863 199.332 517.863 L 38.300 517.863 35.516 516.021 C 33.985 515.008,31.904 512.926,30.891 511.395 L 29.048 508.612 28.879 269.844 L 28.709 31.077 30.422 27.574 C 32.232 23.875,34.677 21.710,38.654 20.284 C 40.610 19.583,71.308 19.445,200.334 19.559 L 359.599 19.699 362.651 21.494 M41.551 31.757 C 39.022 33.529,39.359 40.067,41.979 40.067 C 44.329 40.067,47.056 42.639,48.118 45.856 C 49.513 50.086,45.220 57.429,41.351 57.429 C 40.120 57.429,40.067 58.087,40.067 73.439 L 40.067 89.449 50.811 89.633 L 61.556 89.816 56.708 95.416 C 51.875 100.999,51.862 101.024,52.546 103.589 L 53.233 106.162 50.774 105.769 C 48.411 105.391,48.156 105.553,44.204 109.950 L 40.092 114.524 40.080 118.930 L 40.067 123.336 45.403 127.611 C 48.338 129.963,50.742 132.112,50.745 132.387 C 50.764 133.896,48.388 132.374,44.490 128.381 C 40.129 123.913,40.090 123.891,40.079 125.899 C 40.069 127.478,40.877 128.725,43.734 131.547 C 46.283 134.064,47.189 135.382,46.704 135.865 C 46.219 136.348,45.106 135.541,43.062 133.222 L 40.118 129.883 40.092 132.356 C 40.071 134.464,40.472 135.153,42.813 137.030 C 45.397 139.101,49.342 145.576,48.020 145.576 C 47.686 145.576,47.401 145.351,47.386 145.075 C 47.372 144.800,45.741 142.773,43.763 140.572 L 40.165 136.570 40.191 141.073 C 40.205 143.550,40.484 145.576,40.810 145.576 C 41.136 145.576,41.402 145.125,41.402 144.574 C 41.402 143.271,43.815 143.271,44.315 144.574 C 44.592 145.296,44.244 145.576,43.074 145.576 C 40.607 145.576,40.067 147.428,40.067 155.883 L 40.067 163.606 41.803 163.606 C 49.663 163.606,50.503 176.939,42.875 180.615 L 40.067 181.969 40.067 197.410 L 40.067 212.851 50.731 213.334 L 61.395 213.817 56.741 219.194 C 51.851 224.844,51.681 225.223,52.761 228.063 C 53.432 229.829,53.425 229.834,50.853 229.400 C 46.535 228.670,40.067 236.655,40.067 242.716 L 40.067 246.959 45.472 251.430 C 49.592 254.839,50.688 256.083,50.083 256.665 C 49.479 257.246,48.184 256.228,44.679 252.421 L 40.069 247.412 40.068 249.789 C 40.067 251.845,40.570 252.600,43.791 255.381 C 46.585 257.793,47.322 258.784,46.742 259.348 C 46.165 259.910,45.229 259.258,43.032 256.761 L 40.094 253.422 40.081 255.785 C 40.069 257.742,40.635 258.707,43.381 261.412 C 46.336 264.322,48.784 268.455,47.545 268.443 C 47.288 268.440,45.595 266.637,43.781 264.436 C 41.968 262.235,40.413 260.434,40.325 260.434 C 40.238 260.434,40.178 262.387,40.192 264.775 C 40.207 267.441,40.497 269.115,40.943 269.115 C 41.425 269.115,41.399 269.385,40.868 269.917 C 40.337 270.448,40.067 273.327,40.067 278.451 L 40.067 286.185 42.905 287.166 C 50.255 289.707,49.929 301.210,42.429 303.922 L 40.067 304.776 40.067 320.244 L 40.067 335.712 43.165 336.136 C 44.869 336.370,49.702 336.561,53.905 336.561 L 61.546 336.561 59.125 339.399 C 51.310 348.558,51.772 347.769,52.543 350.654 C 53.299 353.488,53.434 353.414,49.750 352.181 C 48.864 351.885,47.759 352.833,43.567 357.489 L 40.055 361.389 40.110 368.174 L 40.165 374.958 43.533 378.397 C 45.385 380.288,46.790 382.157,46.656 382.549 C 46.340 383.469,45.630 382.933,42.571 379.464 L 40.067 376.624 40.067 378.827 C 40.067 380.530,40.687 381.631,42.794 383.671 C 45.449 386.239,48.626 391.310,47.593 391.328 C 47.310 391.333,45.541 389.613,43.661 387.507 L 40.244 383.676 40.139 396.846 L 40.034 410.017 41.669 410.017 C 50.119 410.017,50.310 424.133,41.903 427.318 L 40.067 428.014 40.067 443.723 L 40.067 459.432 47.913 459.522 C 52.229 459.571,57.037 459.544,58.598 459.462 C 62.235 459.270,62.278 459.135,56.647 465.526 C 51.868 470.949,51.859 470.966,52.545 473.537 L 53.233 476.112 50.783 475.721 C 48.424 475.343,48.179 475.502,44.200 479.991 L 40.067 484.653 40.067 489.011 L 40.067 493.369 45.484 497.851 C 49.559 501.223,50.676 502.482,49.991 502.937 C 49.327 503.378,47.865 502.242,44.574 498.728 L 40.067 493.915 40.067 496.246 C 40.067 498.245,40.596 499.034,43.791 501.792 C 46.585 504.204,47.322 505.194,46.742 505.759 C 46.165 506.321,45.229 505.669,43.032 503.172 L 40.094 499.833 40.081 502.234 C 40.057 506.336,46.234 508.787,49.177 505.843 C 50.468 504.553,53.687 504.553,54.758 505.843 C 55.466 506.696,58.836 506.845,77.475 506.845 L 99.361 506.845 101.370 504.556 C 103.586 502.033,104.174 502.116,104.174 504.953 L 104.174 506.845 109.349 506.835 C 112.607 506.828,114.179 506.606,113.592 506.234 C 112.463 505.519,113.097 503.506,114.451 503.506 C 114.985 503.506,115.764 502.469,116.183 501.202 C 119.408 491.428,131.923 492.791,131.863 502.910 C 131.838 507.113,133.843 508.534,135.875 505.755 C 136.611 504.748,136.803 504.751,138.387 505.788 C 139.637 506.608,141.222 506.858,144.239 506.711 L 148.376 506.511 146.859 504.508 L 145.342 502.504 147.661 504.674 C 149.094 506.015,150.670 506.845,151.785 506.845 C 154.165 506.845,154.117 506.684,150.417 502.280 L 147.245 498.505 151.849 502.675 C 156.777 507.138,160.889 508.313,162.938 505.843 C 163.999 504.565,166.977 504.554,168.654 505.822 C 169.730 506.636,173.619 506.806,191.582 506.824 L 213.214 506.845 215.427 504.341 L 217.641 501.836 217.668 504.341 L 217.696 506.845 222.786 506.845 C 227.167 506.845,227.764 506.709,227.069 505.872 C 226.088 504.690,226.750 503.402,228.208 503.655 C 228.913 503.778,229.463 503.112,229.845 501.674 C 230.581 498.901,234.394 495.077,236.991 494.506 C 242.576 493.280,247.359 499.397,245.464 505.342 C 244.879 507.177,248.320 507.565,249.762 505.828 C 250.518 504.918,250.768 504.918,252.158 505.828 C 253.719 506.851,262.437 507.325,262.437 506.387 C 262.437 506.135,261.764 505.159,260.941 504.217 C 260.050 503.197,260.401 503.382,261.808 504.674 C 263.484 506.214,264.816 506.845,266.390 506.845 L 268.610 506.845 265.357 503.019 C 261.758 498.787,263.964 499.820,268.411 504.449 C 271.162 507.312,274.874 507.764,277.129 505.509 C 278.822 503.816,280.500 503.816,282.653 505.509 C 284.269 506.781,285.370 506.845,305.615 506.855 L 326.878 506.865 329.362 504.017 L 331.847 501.169 331.867 504.007 L 331.886 506.845 337.730 506.802 C 341.909 506.772,343.145 506.588,342.070 506.156 C 340.189 505.400,340.084 503.506,341.924 503.506 C 342.670 503.506,343.441 502.980,343.636 502.337 C 345.808 495.198,352.211 491.901,356.838 495.541 L 358.598 496.925 358.598 484.523 C 358.598 469.739,358.646 469.791,352.125 477.481 L 347.579 482.842 347.100 478.316 C 346.379 471.507,345.537 456.687,345.854 456.371 C 346.007 456.218,348.937 456.093,352.365 456.093 L 358.598 456.093 358.598 443.420 L 358.598 430.746 357.021 431.465 C 354.284 432.712,347.245 426.919,347.245 423.419 C 347.245 421.909,349.684 422.799,350.821 424.723 C 354.561 431.055,358.163 429.146,355.259 422.371 C 353.159 417.472,354.077 414.023,357.482 414.023 C 358.481 414.023,358.598 412.834,358.598 402.671 L 358.598 391.319 356.928 391.319 C 355.012 391.319,354.800 390.537,356.308 389.029 C 356.885 388.452,357.637 387.980,357.978 387.980 C 358.319 387.980,358.598 387.202,358.598 386.251 L 358.598 384.522 356.543 386.251 C 352.521 389.635,349.660 389.400,345.432 385.337 C 343.887 383.853,342.160 382.638,341.595 382.638 C 339.979 382.638,340.396 380.667,342.152 379.999 C 343.024 379.667,343.919 378.672,344.141 377.787 C 345.657 371.746,353.042 368.833,357.145 372.655 L 358.598 374.009 358.598 361.295 C 358.598 346.579,358.870 346.909,352.513 353.915 C 349.851 356.848,347.559 359.133,347.418 358.993 C 347.278 358.852,346.886 353.823,346.548 347.816 C 346.210 341.809,345.786 336.068,345.605 335.058 L 345.275 333.222 351.937 333.222 L 358.598 333.222 358.598 320.576 L 358.598 307.930 356.390 308.289 C 353.825 308.705,350.962 306.691,348.533 302.761 C 346.017 298.689,348.024 298.153,351.326 302.015 C 355.782 307.228,357.743 305.808,355.259 299.167 C 353.440 294.301,353.822 291.994,356.624 290.936 L 358.598 290.191 358.598 278.985 L 358.598 267.780 356.905 267.780 C 355.419 267.780,355.299 267.616,355.927 266.444 C 356.320 265.710,357.081 265.109,357.619 265.109 C 358.267 265.109,358.598 264.413,358.598 263.054 L 358.598 260.999 356.596 263.000 C 353.013 266.584,348.618 266.243,345.384 262.132 C 344.662 261.214,343.283 260.164,342.320 259.798 C 340.244 259.009,339.964 257.095,341.924 257.095 C 342.670 257.095,343.441 256.569,343.636 255.927 C 345.782 248.873,351.851 245.704,356.658 249.127 L 358.598 250.508 358.598 238.109 C 358.598 223.386,358.701 223.499,352.197 231.122 L 347.579 236.535 347.159 232.291 C 346.928 229.957,346.519 223.871,346.251 218.768 L 345.763 209.489 352.180 209.960 L 358.598 210.431 358.598 197.364 C 358.598 184.575,358.570 184.313,357.296 185.109 C 354.812 186.660,347.245 180.561,347.245 177.008 C 347.245 175.436,349.922 176.371,350.915 178.291 C 354.318 184.872,357.922 182.793,355.258 175.786 C 353.277 170.572,354.082 167.613,357.482 167.613 C 358.481 167.613,358.598 166.423,358.598 156.260 L 358.598 144.908 356.928 144.908 C 355.927 144.908,355.259 144.527,355.259 143.955 C 355.259 143.431,356.010 142.411,356.928 141.689 C 357.846 140.966,358.598 139.711,358.598 138.900 C 358.598 137.490,358.492 137.517,356.237 139.497 C 352.693 142.609,349.180 142.434,345.974 138.987 C 344.653 137.566,342.879 136.188,342.032 135.925 C 340.178 135.348,340.311 133.225,342.202 133.223 C 343.087 133.222,343.659 132.551,344.047 131.056 C 345.551 125.271,352.601 122.258,356.838 125.591 L 358.598 126.975 358.598 114.573 C 358.598 99.790,358.646 99.843,352.125 107.527 L 347.579 112.883 347.095 107.026 C 346.828 103.804,346.373 97.788,346.083 93.656 L 345.555 86.144 352.076 86.144 L 358.598 86.144 358.598 73.472 L 358.598 60.801 357.095 61.356 C 354.555 62.295,350.364 59.442,348.190 55.292 C 346.158 51.413,348.625 51.274,351.270 55.118 C 355.337 61.030,357.659 59.061,355.138 51.838 C 353.487 47.106,353.726 45.839,356.579 44.216 C 358.541 43.099,358.589 42.949,358.593 37.912 C 358.599 30.515,358.963 30.665,341.293 30.760 L 327.144 30.836 328.983 33.281 L 330.822 35.726 328.013 33.222 C 326.317 31.710,324.527 30.718,323.493 30.718 L 321.780 30.718 324.329 33.869 L 326.878 37.019 322.977 33.869 L 319.076 30.718 311.154 30.718 L 303.232 30.718 302.787 33.093 C 302.323 35.563,302.692 40.978,303.445 42.771 C 303.818 43.658,303.269 43.767,299.596 43.533 C 296.950 43.364,293.995 43.646,291.866 44.271 L 288.418 45.281 288.950 42.173 C 289.600 38.381,289.617 33.468,288.986 31.882 C 288.511 30.689,213.022 30.025,213.022 31.214 C 213.022 31.452,213.848 32.543,214.858 33.640 C 216.445 35.362,216.276 35.299,213.621 33.175 C 207.997 28.679,206.037 29.959,210.851 34.984 L 214.023 38.295 211.128 36.009 C 204.186 30.529,204.696 30.718,196.826 30.718 C 190.578 30.718,189.544 30.875,189.132 31.886 C 188.490 33.464,188.521 39.909,189.183 42.487 L 189.719 44.574 187.026 43.855 C 184.429 43.162,182.997 43.331,175.684 45.196 C 174.351 45.535,174.149 45.406,174.516 44.450 C 175.407 42.128,175.748 34.372,175.040 32.554 L 174.324 30.718 139.543 30.718 C 114.423 30.718,104.889 30.922,105.216 31.452 C 105.547 31.986,105.296 31.986,104.298 31.452 C 101.694 30.058,97.815 30.934,100.163 32.385 C 100.529 32.611,101.178 33.455,101.607 34.261 C 102.149 35.281,101.540 34.965,99.605 33.222 C 95.191 29.247,92.327 29.641,96.075 33.708 C 99.929 37.889,99.512 38.010,94.790 34.081 L 90.749 30.718 83.117 30.718 L 75.485 30.718 75.047 32.461 C 74.807 33.419,74.778 36.432,74.984 39.155 L 75.359 44.106 72.161 43.682 C 70.043 43.401,67.715 43.621,65.264 44.333 C 63.229 44.925,61.400 45.409,61.199 45.409 C 60.997 45.409,61.011 42.892,61.228 39.816 C 61.445 36.740,61.424 33.435,61.182 32.471 L 60.743 30.718 51.889 30.718 C 44.956 30.718,42.713 30.943,41.551 31.757 M128.250 42.301 C 127.745 42.806,126.549 42.048,124.150 39.704 C 117.948 33.644,117.550 32.147,123.436 37.017 C 127.350 40.255,128.754 41.797,128.250 42.301 M241.308 40.332 C 242.653 41.438,242.976 42.051,242.401 42.406 C 241.879 42.728,239.748 41.039,236.485 37.716 L 231.386 32.522 235.392 35.642 C 237.596 37.358,240.258 39.468,241.308 40.332 M351.596 36.823 C 354.345 39.079,356.594 41.183,356.594 41.498 C 356.594 43.022,354.473 41.650,350.250 37.396 C 344.530 31.631,345.018 31.424,351.596 36.823 M124.812 45.075 C 124.813 46.087,123.921 45.439,121.133 42.404 C 114.960 35.684,114.291 34.134,119.691 39.065 C 122.802 41.906,124.811 44.263,124.812 45.075 M237.687 43.013 C 238.771 44.176,239.092 44.982,238.647 45.426 C 238.203 45.871,236.326 44.140,233.026 40.242 L 228.071 34.391 232.066 37.829 C 234.263 39.720,236.792 42.053,237.687 43.013 M352.958 44.366 C 352.658 45.931,351.288 44.951,347.412 40.398 C 341.881 33.900,342.140 33.456,348.158 39.114 C 350.864 41.658,353.024 44.021,352.958 44.366 M351.373 48.507 C 352.575 49.841,354.132 53.436,353.697 53.871 C 353.552 54.016,350.321 50.444,346.516 45.932 L 339.599 37.730 344.925 42.496 C 347.854 45.117,350.755 47.822,351.373 48.507 M256.427 40.774 C 256.427 41.897,256.167 42.656,255.849 42.459 C 255.311 42.127,255.605 38.731,256.171 38.731 C 256.312 38.731,256.427 39.650,256.427 40.774 M120.079 45.717 C 123.682 49.161,126.770 53.753,126.000 54.523 C 125.801 54.722,119.001 46.971,114.214 41.088 L 112.568 39.065 114.214 40.375 C 115.119 41.095,117.758 43.499,120.079 45.717 M238.094 50.008 C 239.396 52.017,240.439 54.861,239.709 54.409 C 238.789 53.841,227.045 40.157,227.045 39.654 C 227.045 39.126,237.221 48.662,238.094 50.008 M272.711 40.794 C 276.519 43.789,277.348 47.730,275.098 52.140 C 272.099 58.018,264.451 59.101,261.738 54.030 C 261.331 53.271,260.120 52.343,259.047 51.969 C 256.868 51.209,256.273 48.755,258.264 48.738 C 259.004 48.732,260.045 47.470,261.102 45.300 C 263.743 39.877,268.968 37.849,272.711 40.794 M158.787 41.109 C 165.441 45.769,161.707 57.429,153.560 57.429 C 151.255 57.429,150.375 57.000,148.088 54.758 C 146.590 53.289,144.960 52.087,144.468 52.087 C 143.976 52.087,143.573 51.486,143.573 50.751 C 143.573 50.017,143.950 49.416,144.411 49.416 C 144.873 49.416,145.948 47.894,146.801 46.035 C 149.241 40.716,154.903 38.389,158.787 41.109 M232.387 51.212 C 232.387 52.659,230.808 51.461,228.047 47.922 C 223.408 41.974,223.389 41.617,227.949 46.058 C 230.390 48.434,232.387 50.754,232.387 51.212 M346.396 51.156 C 345.747 51.804,344.540 50.652,340.900 45.910 L 337.697 41.736 342.273 46.219 C 344.790 48.685,346.645 50.906,346.396 51.156 M40.512 43.183 C 39.836 43.859,39.980 54.090,40.665 54.090 C 41.872 54.090,45.409 49.320,45.409 47.693 C 45.409 45.178,41.821 41.874,40.512 43.183 M114.778 46.997 C 117.100 49.340,118.701 51.442,118.336 51.667 C 117.971 51.893,115.974 49.976,113.899 47.408 C 111.824 44.839,110.223 42.738,110.341 42.738 C 110.459 42.738,112.456 44.655,114.778 46.997 M151.832 45.123 C 149.262 47.848,149.005 49.109,150.918 49.609 C 152.464 50.013,152.743 52.087,151.252 52.087 C 149.838 52.087,150.008 53.246,151.542 54.067 C 153.899 55.328,157.418 53.063,158.816 49.386 C 159.930 46.455,157.675 42.738,154.782 42.738 C 154.396 42.738,153.069 43.811,151.832 45.123 M265.378 45.569 L 262.820 48.399 264.632 49.036 C 266.733 49.775,266.917 50.576,265.275 51.834 C 264.254 52.617,264.233 52.813,265.109 53.399 C 269.466 56.315,275.813 47.384,271.901 43.843 C 269.930 42.059,268.114 42.540,265.378 45.569 M133.107 45.438 C 136.336 47.978,137.885 50.715,136.742 51.858 C 135.863 52.738,135.501 52.539,133.594 50.132 C 129.732 45.256,128.519 46.879,130.885 53.756 C 134.235 63.495,126.473 65.496,120.820 56.350 C 118.278 52.236,120.302 51.814,123.755 55.738 C 128.171 60.756,130.219 59.324,127.546 53.088 C 124.607 46.233,128.067 41.474,133.107 45.438 M246.756 45.144 C 248.455 46.257,251.085 50.016,251.085 51.331 C 251.085 52.855,249.040 52.022,246.796 49.583 C 243.456 45.952,242.318 47.262,244.303 52.451 C 245.872 56.549,246.158 59.765,245.017 60.470 C 244.498 60.791,244.496 61.124,245.011 61.638 C 245.525 62.153,246.402 61.574,248.085 59.608 C 250.383 56.923,254.384 54.909,255.747 55.752 C 257.225 56.665,256.491 59.095,254.705 59.198 C 250.482 59.442,248.600 63.485,251.920 65.183 C 257.644 68.112,266.830 75.170,273.766 81.970 L 281.429 89.482 285.345 89.482 L 289.261 89.482 287.147 92.151 L 285.034 94.819 287.801 98.996 C 289.322 101.293,292.068 106.252,293.902 110.017 C 297.603 117.615,297.817 117.749,303.192 115.853 C 306.793 114.582,306.768 114.546,305.941 119.858 C 305.561 122.298,305.359 124.650,305.491 125.085 C 305.623 125.520,305.911 127.158,306.131 128.724 L 306.530 131.571 303.939 131.157 L 301.348 130.743 302.382 135.655 C 305.159 148.845,303.603 170.182,298.746 185.496 C 297.023 190.929,297.014 191.052,298.246 192.508 L 299.499 193.990 298.009 192.729 C 295.962 190.997,294.584 193.784,296.401 195.982 C 297.438 197.235,297.431 197.255,296.276 196.359 C 294.823 195.230,293.739 196.261,293.837 198.678 C 293.845 198.868,293.538 199.394,293.156 199.846 C 292.365 200.782,285.142 212.382,285.142 212.718 C 285.142 212.838,286.073 213.031,287.211 213.146 L 289.281 213.356 284.448 218.930 C 279.656 224.459,279.622 224.525,280.354 226.910 C 281.244 229.812,281.152 229.943,278.835 229.062 C 276.553 228.195,276.724 228.076,271.123 234.432 L 266.444 239.741 266.444 237.455 C 266.444 232.857,266.145 232.861,259.217 237.563 C 255.663 239.975,249.963 243.299,246.552 244.951 L 240.349 247.953 242.081 249.089 C 246.278 251.842,247.270 257.121,244.382 261.336 C 240.822 266.532,236.522 267.153,232.131 263.105 C 230.537 261.636,228.928 260.434,228.555 260.434 C 228.182 260.434,227.556 260.048,227.165 259.577 C 226.304 258.540,227.247 256.729,228.307 257.384 C 228.749 257.657,229.322 257.081,229.718 255.967 C 230.084 254.935,230.706 253.535,231.098 252.857 C 232.138 251.059,231.838 251.031,226.486 252.437 C 216.800 254.980,208.027 255.882,194.992 255.675 C 188.197 255.568,181.396 255.726,179.878 256.026 C 177.161 256.565,177.124 256.546,177.452 254.831 C 177.717 253.446,177.524 253.088,176.512 253.088 C 168.234 253.088,144.110 241.164,132.551 231.358 L 127.977 227.478 123.922 231.948 C 118.757 237.640,119.104 237.978,118.719 226.878 L 118.388 217.362 113.838 210.684 C 111.335 207.012,107.849 201.002,106.091 197.329 C 103.105 191.092,102.892 190.817,102.866 193.168 L 102.838 195.686 90.651 195.246 C 83.948 195.005,78.375 194.734,78.265 194.645 C 78.156 194.556,80.201 192.004,82.811 188.974 C 85.715 185.603,87.410 183.087,87.181 182.489 C 85.738 178.730,85.880 178.332,88.412 179.031 C 90.671 179.655,90.925 179.558,92.901 177.307 C 97.904 171.608,97.679 172.307,96.791 165.255 L 95.990 158.889 92.402 155.824 C 90.429 154.139,88.815 152.495,88.815 152.173 C 88.815 150.748,90.865 151.822,93.404 154.576 C 96.095 157.495,96.160 157.524,96.160 155.776 C 96.160 154.678,95.357 153.159,94.082 151.842 C 91.607 149.289,92.045 147.285,94.561 149.649 L 96.160 151.151 96.160 149.165 C 96.160 145.525,92.048 143.913,91.216 147.226 C 90.374 150.584,86.225 150.811,83.071 147.672 L 81.301 145.910 83.095 145.695 C 84.082 145.576,85.298 145.819,85.798 146.234 C 87.204 147.401,89.636 145.653,89.178 143.804 C 88.850 142.480,89.025 142.392,91.369 142.707 C 94.267 143.095,97.496 140.226,97.496 137.263 C 97.496 135.758,100.259 124.330,101.177 122.037 C 101.582 121.028,101.235 120.868,98.640 120.868 C 91.376 120.868,88.361 112.454,93.519 106.579 C 97.458 102.093,101.546 101.986,105.155 106.274 L 106.776 108.201 108.601 105.019 C 109.605 103.268,112.188 99.236,114.341 96.058 C 117.500 91.393,118.171 89.945,117.820 88.545 C 117.426 86.978,117.570 86.811,119.313 86.811 C 120.803 86.811,122.221 85.817,125.562 82.431 C 127.939 80.022,131.309 76.957,133.051 75.619 L 136.220 73.187 134.635 71.485 C 129.276 65.727,132.215 57.263,140.123 55.682 C 143.444 55.017,143.123 58.007,139.704 59.580 C 135.730 61.408,133.451 66.755,135.812 68.714 C 136.537 69.315,136.810 69.176,137.103 68.057 C 137.563 66.298,139.157 66.705,139.444 68.655 C 139.652 70.068,139.716 70.058,143.117 68.070 C 145.020 66.957,148.681 64.974,151.252 63.663 C 153.823 62.353,156.900 60.230,158.089 58.945 C 160.026 56.854,160.502 56.657,162.638 57.057 C 163.977 57.309,166.072 57.160,167.409 56.718 L 169.793 55.932 167.701 54.295 C 165.381 52.479,165.093 51.575,166.645 50.980 C 167.261 50.743,168.775 51.462,170.382 52.753 L 173.083 54.924 178.194 53.842 C 185.789 52.236,195.204 51.323,202.212 51.513 L 208.431 51.682 211.116 48.541 C 214.285 44.834,215.025 45.007,215.025 49.455 C 215.025 52.247,215.219 52.755,216.289 52.755 C 217.649 52.755,231.850 56.279,234.055 57.164 C 235.360 57.687,235.363 57.660,234.194 55.876 C 233.537 54.873,233.180 53.760,233.401 53.404 C 234.102 52.269,235.652 52.703,236.454 54.257 C 240.191 61.505,243.963 59.862,241.068 52.247 C 238.699 46.013,241.928 41.981,246.756 45.144 M101.813 57.633 C 102.377 63.806,102.838 69.530,102.838 70.355 L 102.838 71.854 90.651 71.577 C 83.948 71.424,78.357 71.202,78.227 71.083 C 78.096 70.964,80.125 68.400,82.734 65.384 C 87.901 59.415,87.785 59.655,86.793 57.046 C 85.929 54.774,86.082 54.642,88.705 55.394 C 90.798 55.994,90.952 55.883,95.673 50.378 C 98.328 47.281,100.566 45.122,100.645 45.579 C 100.724 46.036,101.250 51.461,101.813 57.633 M329.768 58.439 L 330.943 71.646 321.960 71.215 C 317.020 70.979,311.344 70.785,309.348 70.785 L 305.719 70.785 308.619 67.382 C 315.464 59.351,315.609 59.029,314.117 55.141 C 313.764 54.223,313.966 54.165,315.493 54.745 C 318.432 55.863,318.804 55.646,323.520 50.057 C 326.012 47.105,328.172 44.811,328.322 44.961 C 328.471 45.110,329.122 51.175,329.768 58.439 M357.512 47.724 C 357.305 48.263,357.441 49.540,357.814 50.562 C 358.463 52.340,358.495 52.298,358.545 49.583 C 358.599 46.694,358.190 45.958,357.512 47.724 M284.896 53.001 C 290.857 58.962,287.658 63.790,279.573 61.035 C 273.755 59.053,272.745 61.203,277.561 65.320 C 280.862 68.142,281.469 71.057,278.415 69.423 C 268.205 63.959,269.378 54.086,279.800 57.763 C 285.154 59.652,286.356 57.742,282.046 54.189 C 280.441 52.866,279.755 51.831,280.022 51.136 C 280.666 49.458,281.779 49.883,284.896 53.001 M57.183 53.668 C 63.166 59.651,59.963 64.260,51.779 61.445 C 45.677 59.345,44.745 61.626,49.905 66.036 C 53.767 69.338,53.231 71.346,49.159 68.829 C 39.960 63.144,41.971 54.731,51.727 58.088 C 57.362 60.027,58.612 58.525,54.424 54.848 C 53.139 53.719,52.087 52.335,52.087 51.773 C 52.087 49.915,54.224 50.709,57.183 53.668 M293.956 63.272 C 299.286 69.906,299.253 70.355,293.824 65.017 C 291.049 62.289,289.173 59.933,289.436 59.508 C 290.099 58.434,290.005 58.356,293.956 63.272 M66.735 64.388 C 72.097 70.950,71.858 71.480,66.110 65.776 C 61.806 61.505,60.483 59.432,62.061 59.432 C 62.404 59.432,64.508 61.663,66.735 64.388 M192.321 60.130 C 112.799 67.470,77.442 163.480,133.561 219.685 C 193.118 279.333,293.583 237.389,293.474 152.922 C 293.413 106.035,255.587 63.956,210.351 60.452 C 200.090 59.658,197.864 59.618,192.321 60.130 M288.667 70.397 C 291.673 73.732,293.537 75.988,292.809 75.411 C 290.433 73.526,277.796 62.560,277.796 62.383 C 277.796 60.716,284.186 65.427,288.667 70.397 M52.840 63.726 C 54.930 64.612,58.417 67.928,64.116 74.451 C 66.665 77.369,66.307 77.102,57.429 69.476 C 48.698 61.976,48.691 61.967,52.840 63.726 M64.441 68.114 C 66.992 70.684,68.827 72.788,68.519 72.788 C 67.718 72.788,58.765 64.757,58.765 64.038 C 58.765 62.746,59.982 63.620,64.441 68.114 M291.880 67.279 C 297.797 73.434,297.895 74.109,292.154 69.162 C 286.542 64.326,285.786 63.439,287.277 63.439 C 287.779 63.439,289.850 65.167,291.880 67.279 M286.829 74.934 C 289.390 77.583,290.885 79.293,290.150 78.734 C 285.083 74.876,281.803 71.860,281.803 71.056 C 281.803 69.713,281.721 69.649,286.829 74.934 M58.784 75.268 C 63.212 79.863,63.009 79.818,56.928 74.856 C 53.698 72.221,52.645 70.785,53.942 70.785 C 54.229 70.785,56.407 72.802,58.784 75.268 M310.451 85.936 C 312.068 87.370,313.268 88.912,313.118 89.361 C 312.966 89.816,310.780 88.058,308.176 85.388 C 303.537 80.630,304.824 80.940,310.451 85.936 M81.683 85.476 C 83.734 87.129,85.427 89.007,85.444 89.649 C 85.488 91.257,85.651 91.375,80.450 86.060 C 75.417 80.917,75.800 80.735,81.683 85.476 M310.039 91.390 C 313.632 94.479,316.460 97.118,316.324 97.254 C 315.316 98.263,311.185 95.217,306.397 89.935 C 300.222 83.123,300.595 83.273,310.039 91.390 M81.167 90.845 C 84.981 94.166,88.290 97.187,88.519 97.558 C 89.164 98.601,83.942 96.249,82.757 94.962 C 82.180 94.336,79.803 91.795,77.476 89.316 C 71.692 83.155,72.914 83.661,81.167 90.845 M80.195 97.033 C 79.335 97.894,78.536 97.225,73.275 91.245 L 69.115 86.518 74.992 91.439 C 78.940 94.745,80.647 96.581,80.195 97.033 M308.514 96.322 C 308.514 97.659,306.508 96.525,303.798 93.656 C 297.819 87.326,297.603 86.654,303.005 91.190 C 306.035 93.734,308.514 96.044,308.514 96.322 M305.444 100.833 C 304.964 101.313,304.056 100.648,302.497 98.677 C 295.688 90.066,295.571 89.803,300.861 94.978 C 304.512 98.548,305.924 100.353,305.444 100.833 M319.080 92.466 C 327.369 98.421,324.513 105.793,315.192 102.504 C 309.836 100.615,308.623 102.524,312.966 106.008 C 314.662 107.369,315.284 108.312,314.990 109.078 C 314.360 110.720,313.526 110.451,310.596 107.664 C 304.119 101.502,307.435 96.302,315.920 99.316 C 321.398 101.262,322.263 97.765,317.142 94.376 C 314.649 92.727,313.988 91.577,314.969 90.595 C 315.608 89.956,315.549 89.930,319.080 92.466 M77.705 99.837 C 78.689 102.401,76.755 101.722,74.301 98.643 C 72.774 96.726,70.684 94.107,69.657 92.821 C 68.422 91.276,69.418 91.936,72.596 94.768 C 75.240 97.124,77.540 99.405,77.705 99.837 M91.189 92.847 C 94.628 95.213,95.496 96.583,95.482 99.622 C 95.463 103.894,93.439 104.745,87.612 102.931 C 85.370 102.233,83.371 101.827,83.170 102.028 C 82.159 103.038,83.054 104.990,85.146 106.338 C 87.562 107.894,87.976 109.672,86.010 110.050 C 84.187 110.401,79.466 105.199,79.466 102.838 C 79.466 98.593,81.845 97.580,87.305 99.499 C 93.571 101.701,94.804 97.588,88.808 94.488 C 87.614 93.870,86.811 92.925,86.811 92.136 C 86.811 90.326,87.745 90.478,91.189 92.847 M332.488 105.443 C 333.921 106.876,335.724 108.249,336.495 108.493 C 338.212 109.038,338.400 111.507,336.728 111.547 C 335.997 111.564,334.990 112.789,334.038 114.821 C 330.598 122.162,322.336 122.673,319.433 115.725 C 315.879 107.219,326.164 99.119,332.488 105.443 M97.392 107.683 C 92.766 111.593,93.055 117.696,97.867 117.696 C 101.346 117.696,105.233 112.557,102.531 111.529 C 100.704 110.835,100.189 108.848,101.836 108.848 C 103.250 108.848,103.081 107.689,101.546 106.868 C 99.756 105.910,99.408 105.978,97.392 107.683 M324.741 107.679 C 321.420 111.326,320.938 114.884,323.534 116.586 C 325.796 118.068,328.091 117.370,330.244 114.548 C 331.985 112.266,332.004 110.592,330.282 111.253 C 329.318 111.623,328.302 109.786,328.919 108.788 C 329.125 108.454,329.764 108.180,330.338 108.180 C 331.191 108.180,331.230 107.996,330.551 107.179 C 329.319 105.694,326.313 105.954,324.741 107.679 M78.305 118.364 C 77.658 121.972,77.655 126.552,78.297 129.549 L 78.797 131.886 73.288 131.886 C 70.259 131.886,66.784 132.140,65.567 132.450 L 63.355 133.013 63.898 130.446 C 64.583 127.209,64.600 120.436,63.930 118.043 C 63.443 116.300,63.496 116.249,65.143 116.874 C 67.451 117.752,71.200 117.620,74.457 116.546 C 78.764 115.127,78.876 115.179,78.305 118.364 M349.565 129.100 C 347.161 131.503,346.536 133.556,348.208 133.556 C 349.813 133.556,350.201 135.035,348.853 136.021 C 347.761 136.820,347.724 137.035,348.584 137.579 C 352.948 140.338,359.217 133.163,356.102 128.975 C 354.154 126.355,352.273 126.391,349.565 129.100 M222.599 132.904 C 227.961 134.560,228.116 134.788,226.449 138.557 C 224.918 142.019,224.804 142.043,217.334 140.498 C 209.151 138.806,203.673 140.293,203.673 144.208 C 203.673 146.942,204.607 147.659,215.124 152.995 C 225.944 158.485,228.622 160.780,229.601 165.400 C 232.230 177.805,221.382 186.089,205.644 183.695 C 193.543 181.854,191.107 180.164,193.448 175.235 C 194.886 172.208,195.577 172.108,202.337 173.954 C 212.001 176.591,219.130 174.999,220.069 169.993 C 220.759 166.315,219.605 165.247,209.890 160.576 C 196.586 154.179,194.082 151.695,194.146 144.955 C 194.214 137.693,198.023 133.307,206.010 131.290 C 208.624 130.631,218.279 131.570,222.599 132.904 M265.355 132.913 C 278.089 137.677,283.342 159.688,275.281 174.500 L 273.477 177.814 275.099 178.890 C 279.469 181.788,279.446 181.740,277.862 184.845 C 276.130 188.242,275.999 188.249,270.558 185.258 C 266.493 183.024,266.032 182.917,263.363 183.589 C 245.598 188.062,233.383 176.359,234.574 156.006 C 235.669 137.313,249.460 126.966,265.355 132.913 M331.277 144.872 C 330.905 145.102,331.625 146.556,332.921 148.194 C 336.206 152.346,335.774 152.416,331.699 148.391 C 329.113 145.837,327.666 144.908,326.275 144.908 L 324.378 144.908 327.975 149.082 C 333.871 155.922,333.824 156.229,327.771 150.417 C 321.513 144.409,319.617 143.650,318.969 146.894 C 318.247 150.499,311.836 149.955,309.780 146.114 C 309.041 144.733,312.305 144.292,313.609 145.596 C 314.805 146.792,317.878 144.769,317.067 143.319 C 316.168 141.714,316.667 141.402,318.822 142.221 C 321.128 143.098,321.799 142.629,327.280 136.311 L 331.553 131.387 331.745 137.925 C 331.857 141.738,331.662 144.634,331.277 144.872 M192.321 133.184 C 192.321 133.347,191.690 134.549,190.919 135.855 L 189.517 138.230 183.073 138.219 C 179.528 138.212,167.913 137.768,157.262 137.232 C 146.611 136.695,136.319 136.250,134.391 136.242 C 125.808 136.206,132.065 135.041,143.406 134.563 C 150.292 134.273,160.134 133.827,165.275 133.573 C 176.739 133.007,192.321 132.782,192.321 133.184 M55.104 135.962 C 57.110 137.277,59.679 141.297,59.106 142.225 C 58.329 143.483,57.105 142.903,55.587 140.559 C 52.671 136.058,50.284 138.022,52.430 143.157 C 53.428 145.547,53.421 145.576,51.834 145.576 C 48.978 145.576,46.899 138.171,49.130 135.941 C 50.478 134.592,53.026 134.601,55.104 135.962 M253.422 140.367 C 241.610 144.471,240.515 171.397,252.018 174.879 C 258.930 176.971,260.118 176.308,257.241 171.964 C 254.854 168.361,254.929 167.860,258.187 165.635 L 260.594 163.992 261.929 165.635 C 262.663 166.539,263.817 167.980,264.493 168.837 C 268.941 174.475,270.923 154.718,266.738 146.459 C 263.835 140.731,258.889 138.468,253.422 140.367 M346.578 146.912 C 345.793 148.013,345.021 148.915,344.863 148.915 C 344.704 148.915,344.574 148.013,344.574 146.912 C 344.574 145.206,344.829 144.908,346.289 144.908 L 348.004 144.908 346.578 146.912 M188.567 147.078 C 188.684 147.538,189.099 148.890,189.490 150.083 L 190.201 152.254 187.087 152.275 C 185.375 152.286,170.601 151.610,154.257 150.772 L 124.541 149.249 135.225 148.727 C 161.712 147.433,182.872 146.429,185.497 146.340 C 187.295 146.280,188.434 146.554,188.567 147.078 M328.070 155.927 L 330.806 159.265 328.174 156.936 C 321.416 150.952,319.985 149.382,320.372 148.375 C 320.788 147.291,321.843 148.325,328.070 155.927 M323.233 156.457 C 325.572 159.103,326.899 160.798,326.181 160.223 C 325.462 159.648,323.072 157.704,320.868 155.904 C 318.664 154.103,316.756 152.565,316.628 152.486 C 316.499 152.407,316.584 152.035,316.816 151.660 C 317.532 150.501,318.818 151.463,323.233 156.457 M75.780 152.755 C 74.894 154.869,74.603 164.110,75.355 166.265 C 76.000 168.115,75.951 168.318,74.937 168.016 C 71.360 166.955,69.859 166.934,66.123 167.891 C 63.853 168.472,61.795 168.948,61.549 168.948 C 61.303 168.948,61.102 165.355,61.102 160.963 L 61.102 152.977 64.775 153.326 C 67.098 153.547,69.551 153.316,71.452 152.697 C 75.629 151.337,76.370 151.346,75.780 152.755 M352.475 161.269 C 354.738 163.105,356.590 164.833,356.592 165.109 C 356.599 166.581,354.389 165.097,350.233 160.838 C 345.284 155.768,345.826 155.872,352.475 161.269 M350.480 165.142 C 352.433 167.150,353.123 168.284,352.592 168.612 C 352.158 168.880,351.567 168.840,351.278 168.523 C 342.653 159.059,342.041 156.467,350.480 165.142 M203.758 163.430 C 207.700 165.169,210.825 166.693,210.702 166.816 C 210.579 166.939,199.106 166.568,185.206 165.991 C 171.306 165.415,151.820 164.631,141.903 164.250 C 121.516 163.467,118.200 163.205,125.876 162.985 C 128.815 162.900,141.736 162.295,154.591 161.640 C 167.446 160.985,182.154 160.408,187.277 160.358 L 196.590 160.267 203.758 163.430 M352.679 174.522 C 354.952 178.888,353.623 177.972,347.800 171.158 C 339.779 161.774,339.590 161.378,345.788 166.955 C 348.843 169.704,351.944 173.109,352.679 174.522 M346.313 174.767 C 345.769 175.300,341.546 170.938,339.063 167.279 C 338.315 166.177,339.762 167.293,342.277 169.758 C 344.792 172.224,346.608 174.478,346.313 174.767 M40.067 172.336 C 40.067 178.500,41.065 179.203,43.883 175.022 C 46.387 171.307,45.207 166.945,41.698 166.945 C 40.103 166.945,40.067 167.064,40.067 172.336 M330.066 184.808 L 330.946 194.992 322.499 194.992 C 317.853 194.992,312.225 194.801,309.991 194.567 L 305.930 194.143 310.561 188.792 C 315.411 183.189,315.595 182.783,314.539 180.004 C 313.895 178.311,313.922 178.292,316.410 178.690 C 318.896 179.087,319.004 179.012,323.574 173.665 L 328.214 168.237 328.700 171.431 C 328.967 173.187,329.582 179.207,330.066 184.808 M357.309 172.120 C 357.419 174.859,358.503 176.025,358.551 173.456 C 358.577 172.078,358.297 170.952,357.930 170.952 C 357.563 170.952,357.283 171.477,357.309 172.120 M57.083 177.181 C 62.916 182.769,59.634 188.366,52.318 185.309 C 45.284 182.370,44.684 186.362,51.458 191.033 C 53.035 192.120,52.792 193.656,51.044 193.656 C 49.439 193.656,43.406 187.388,43.406 185.722 C 43.406 181.238,46.126 179.857,51.378 181.675 C 57.262 183.711,58.762 182.047,54.333 178.396 C 52.728 177.073,52.042 176.038,52.309 175.343 C 52.934 173.714,53.822 174.056,57.083 177.181 M187.646 174.859 C 187.646 175.171,187.304 176.408,186.886 177.608 L 186.125 179.789 172.695 179.296 C 165.309 179.025,151.603 178.454,142.237 178.026 L 125.209 177.248 134.558 176.689 C 167.585 174.712,187.646 174.021,187.646 174.859 M66.428 187.813 C 72.210 194.949,72.227 195.163,66.572 189.666 C 61.957 185.182,60.438 182.972,61.970 182.972 C 62.264 182.972,64.270 185.150,66.428 187.813 M60.576 194.218 C 63.436 197.365,65.326 199.667,64.775 199.334 C 63.627 198.640,50.083 186.915,50.083 186.615 C 50.083 185.019,56.327 189.544,60.576 194.218 M67.637 195.326 C 68.639 196.739,67.689 196.162,64.412 193.366 C 61.857 191.186,59.507 189.184,59.190 188.916 C 58.873 188.649,58.834 188.075,59.102 187.640 C 59.627 186.790,65.042 191.666,67.637 195.326 M59.116 199.141 C 63.963 204.154,63.687 204.096,57.257 198.746 C 55.143 196.987,53.583 195.272,53.791 194.936 C 54.314 194.089,53.970 193.817,59.116 199.141 M311.117 210.171 C 312.365 211.229,313.265 212.459,313.116 212.905 C 312.967 213.353,310.753 211.565,308.176 208.916 C 303.727 204.343,304.757 204.783,311.117 210.171 M82.738 210.143 C 84.355 211.578,85.555 213.119,85.405 213.568 C 85.253 214.023,83.067 212.265,80.463 209.595 C 75.825 204.837,77.111 205.147,82.738 210.143 M310.716 215.608 C 316.352 220.475,317.393 222.226,313.401 220.126 C 311.635 219.197,309.195 216.797,302.832 209.726 L 300.167 206.764 302.504 208.650 C 303.790 209.687,307.485 212.818,310.716 215.608 M81.992 215.332 C 85.769 218.567,88.732 221.341,88.575 221.497 C 87.590 222.482,83.045 219.047,78.151 213.618 C 71.972 206.765,72.007 206.781,81.992 215.332 M308.096 220.503 C 307.662 221.207,299.588 213.635,298.339 211.352 C 297.937 210.618,300.061 212.226,303.059 214.926 C 306.056 217.627,308.323 220.136,308.096 220.503 M80.800 220.534 C 80.804 221.904,78.750 220.682,75.746 217.529 C 69.798 211.287,69.670 210.695,75.290 215.411 C 78.319 217.953,80.799 220.259,80.800 220.534 M320.548 217.455 C 327.016 223.297,322.964 229.387,314.862 226.002 C 310.172 224.042,308.959 226.331,312.946 229.617 C 315.278 231.539,315.727 233.723,313.790 233.723 C 312.310 233.723,307.179 227.946,307.179 226.280 C 307.179 222.200,310.311 220.761,314.961 222.705 C 320.815 225.150,322.308 222.804,317.558 218.624 C 315.336 216.669,314.471 215.460,314.757 214.713 C 315.276 213.361,316.834 214.099,320.548 217.455 M77.668 224.802 C 77.203 226.013,77.554 226.317,73.138 220.868 C 67.363 213.742,67.340 213.520,72.937 218.958 C 75.933 221.869,77.873 224.266,77.668 224.802 M90.885 216.477 C 98.267 221.804,97.184 229.301,89.352 227.078 C 82.034 225.001,80.355 226.286,85.253 230.215 C 87.567 232.072,88.080 234.391,86.176 234.391 C 84.583 234.391,79.466 228.588,79.466 226.782 C 79.466 222.283,82.027 221.328,88.207 223.523 C 93.685 225.469,94.551 221.972,89.429 218.583 C 87.937 217.596,86.811 216.315,86.811 215.604 C 86.811 213.882,87.490 214.028,90.885 216.477 M305.843 224.189 C 305.843 225.905,304.579 224.944,301.036 220.534 C 295.722 213.921,295.732 213.458,301.077 218.680 C 303.698 221.241,305.843 223.720,305.843 224.189 M330.485 227.345 C 331.514 227.877,332.855 229.074,333.465 230.005 C 334.075 230.936,335.322 231.886,336.235 232.115 C 338.174 232.602,338.582 235.049,336.728 235.074 C 335.975 235.084,335.044 236.264,334.109 238.391 C 330.693 246.168,321.699 246.308,319.163 238.624 C 316.930 231.856,324.543 224.272,330.485 227.345 M104.775 229.650 C 106.208 231.083,108.028 232.461,108.820 232.712 C 110.500 233.245,110.391 235.439,108.691 235.305 C 107.996 235.251,107.436 235.890,107.187 237.022 C 105.478 244.805,96.002 247.226,92.127 240.869 C 86.987 232.440,97.893 222.767,104.775 229.650 M325.353 230.758 C 322.110 233.030,320.894 237.975,323.091 239.963 C 324.976 241.670,327.129 241.285,329.616 238.798 C 332.169 236.245,332.488 235.058,330.622 235.058 C 329.927 235.058,329.176 234.583,328.953 234.002 C 328.380 232.510,328.425 232.387,329.549 232.387 C 330.879 232.387,330.837 230.637,329.495 230.122 C 327.856 229.493,326.964 229.630,325.353 230.758 M96.229 232.744 C 92.635 236.838,94.376 242.816,98.758 241.426 C 102.258 240.315,105.043 235.058,102.131 235.058 C 100.552 235.058,100.418 233.354,101.930 232.508 C 103.476 231.643,102.449 230.384,100.197 230.384 C 98.864 230.384,97.687 231.084,96.229 232.744 M306.086 242.571 C 305.481 247.712,305.480 247.940,306.067 252.196 L 306.542 255.644 304.177 254.918 C 301.920 254.226,297.685 254.682,292.549 256.172 C 291.092 256.595,290.987 256.488,291.428 255.030 C 292.351 251.987,292.663 243.868,291.937 241.786 C 291.231 239.759,291.249 239.733,293.022 240.229 C 295.654 240.967,300.444 240.628,303.506 239.487 C 304.975 238.939,306.267 238.470,306.377 238.444 C 306.487 238.419,306.356 240.275,306.086 242.571 M78.305 241.903 C 77.651 245.552,77.656 250.865,78.316 253.427 L 78.833 255.435 73.640 255.430 C 70.784 255.428,67.300 255.688,65.897 256.009 L 63.347 256.593 63.894 254.006 C 64.587 250.725,64.602 243.845,63.919 241.978 C 63.414 240.597,63.533 240.561,67.592 240.868 C 70.354 241.078,72.698 240.850,74.457 240.203 C 78.723 238.634,78.879 238.703,78.305 241.903 M160.100 252.051 C 165.451 256.316,165.304 256.145,164.034 256.633 C 163.498 256.838,161.101 254.898,158.191 251.902 C 152.783 246.338,152.948 246.350,160.100 252.051 M278.464 255.802 C 278.464 257.289,276.513 256.181,273.394 252.922 C 267.857 247.135,267.825 246.548,273.289 250.980 C 276.135 253.289,278.464 255.459,278.464 255.802 M127.121 248.667 C 133.485 251.326,133.894 259.564,127.890 264.145 C 124.516 266.718,121.248 266.393,118.193 263.182 C 116.836 261.755,115.062 260.377,114.252 260.120 C 112.521 259.570,112.636 257.380,114.389 257.523 C 115.119 257.582,115.689 256.974,115.953 255.853 C 117.255 250.335,122.711 246.824,127.121 248.667 M274.429 257.546 C 275.119 258.167,275.195 258.628,274.688 259.135 C 274.182 259.641,272.840 258.527,270.070 255.300 C 263.958 248.178,263.781 247.779,268.783 252.375 C 271.353 254.738,273.894 257.065,274.429 257.546 M156.411 254.239 C 160.850 258.645,161.814 260.078,160.048 259.648 C 159.040 259.403,150.578 249.750,151.371 249.750 C 151.654 249.750,153.922 251.770,156.411 254.239 M121.403 253.732 C 118.720 256.415,118.554 257.763,120.908 257.763 C 122.522 257.763,122.604 259.464,121.035 260.389 C 120.016 260.989,119.994 261.163,120.868 261.747 C 125.272 264.692,131.614 255.768,127.660 252.190 C 125.776 250.485,124.282 250.853,121.403 253.732 M235.304 253.470 C 232.701 256.230,232.457 257.582,234.505 257.883 C 236.460 258.171,236.804 259.546,235.060 260.100 C 233.267 260.669,234.478 262.437,236.661 262.437 C 241.231 262.437,244.769 255.454,241.736 252.421 C 239.779 250.464,237.841 250.780,235.304 253.470 M349.250 253.195 C 346.906 255.761,346.736 256.806,348.581 257.289 C 350.127 257.693,350.406 259.766,348.915 259.766 C 347.332 259.766,347.747 261.055,349.602 261.900 C 351.753 262.880,354.357 261.156,356.139 257.572 C 358.842 252.137,353.384 248.669,349.250 253.195 M160.736 265.682 C 162.293 269.377,161.380 268.771,156.119 262.619 C 147.315 252.323,147.133 251.981,153.520 257.763 C 157.023 260.934,160.208 264.429,160.736 265.682 M270.248 259.883 C 272.523 262.206,274.694 264.933,275.072 265.943 C 275.866 268.063,275.048 268.385,273.704 266.482 C 273.200 265.768,270.384 262.393,267.446 258.981 C 261.703 252.314,263.355 252.846,270.248 259.883 M331.146 267.824 C 330.596 268.164,331.139 269.307,332.919 271.553 L 335.484 274.791 331.828 271.285 C 325.048 264.784,323.302 266.589,329.364 273.833 L 333.519 278.798 327.349 273.289 C 320.456 267.134,319.747 266.855,318.836 269.950 C 317.959 272.927,314.303 273.367,311.431 270.841 L 309.516 269.157 313.439 269.136 L 317.362 269.115 316.970 267.155 C 316.588 265.243,316.625 265.212,318.509 265.869 C 321.170 266.796,322.285 266.063,327.308 260.087 L 331.553 255.036 331.746 261.185 C 331.879 265.399,331.690 267.488,331.146 267.824 M103.433 268.492 C 102.883 268.832,103.427 269.975,105.206 272.221 L 107.771 275.459 104.115 271.953 C 101.489 269.435,99.934 268.447,98.595 268.447 L 96.731 268.447 98.282 270.375 C 99.135 271.436,101.185 273.915,102.838 275.884 C 105.523 279.085,105.203 278.880,99.833 273.963 C 93.248 267.933,91.971 267.431,90.915 270.460 C 89.737 273.840,86.514 273.951,83.003 270.732 L 81.135 269.019 83.976 269.338 C 88.227 269.815,89.665 269.267,89.185 267.355 C 88.732 265.546,88.759 265.534,91.248 266.481 C 93.018 267.154,93.342 266.927,98.471 261.429 L 103.840 255.673 104.033 261.837 C 104.166 266.063,103.977 268.156,103.433 268.492 M217.847 263.272 C 218.009 267.281,217.852 268.447,217.152 268.447 C 216.578 268.447,216.958 269.360,218.196 270.952 C 221.548 275.262,221.355 275.587,217.602 271.953 C 211.310 265.861,209.089 267.103,214.748 273.549 C 219.671 279.156,218.653 278.950,212.643 273.122 C 207.307 267.948,205.405 267.298,204.778 270.433 C 204.252 273.066,201.660 273.780,198.603 272.134 C 194.903 270.141,195.156 269.109,199.301 269.291 C 203.459 269.474,204.075 269.111,203.002 267.106 C 202.284 265.765,202.346 265.687,203.782 266.124 C 207.185 267.158,208.016 266.687,212.791 261.019 C 216.092 257.102,217.401 255.942,217.500 256.846 C 217.576 257.534,217.732 260.426,217.847 263.272 M154.492 265.936 C 153.993 266.743,152.306 265.124,148.535 260.217 L 145.365 256.093 150.112 260.718 C 152.723 263.261,154.694 265.609,154.492 265.936 M268.447 265.310 C 268.447 266.618,266.744 265.139,263.566 261.072 L 260.199 256.761 264.323 260.747 C 266.591 262.939,268.447 264.993,268.447 265.310 M283.776 260.152 C 286.679 262.775,287.671 264.850,286.555 265.966 C 286.035 266.486,285.072 265.867,283.139 263.773 C 279.937 260.305,278.248 260.734,279.666 264.656 C 280.729 267.597,280.696 267.780,279.098 267.780 C 276.228 267.780,274.860 261.355,277.254 259.125 C 279.325 257.196,280.753 257.421,283.776 260.152 M56.515 261.348 C 59.620 264.453,60.057 265.578,58.405 266.213 C 57.742 266.467,56.601 265.709,55.188 264.074 C 51.946 260.324,50.437 262.088,52.445 267.279 C 53.398 269.742,50.089 268.625,49.048 266.132 C 46.068 258.999,51.004 255.837,56.515 261.348 M139.748 260.483 C 141.938 262.288,142.237 262.890,142.237 265.491 L 142.237 268.447 134.891 268.447 C 127.526 268.447,126.631 268.122,128.595 266.158 C 129.915 264.838,132.245 264.822,135.328 266.110 C 140.645 268.332,142.203 266.772,138.282 263.153 C 136.411 261.425,135.666 260.265,135.951 259.522 C 136.523 258.031,136.884 258.122,139.748 260.483 M170.387 261.130 C 172.957 263.832,173.766 266.444,172.033 266.444 C 171.525 266.444,170.308 265.392,169.327 264.107 C 166.325 260.171,164.033 261.434,165.931 265.979 C 166.953 268.425,166.948 268.447,165.365 268.447 C 162.421 268.447,160.764 261.184,163.288 259.338 C 165.503 257.719,167.660 258.263,170.387 261.130 M254.591 261.339 C 256.011 262.656,256.427 263.654,256.427 265.744 L 256.427 268.447 248.666 268.447 L 240.906 268.447 241.898 266.945 C 243.184 264.998,245.083 264.758,248.901 266.059 C 254.820 268.076,256.216 266.820,252.087 263.195 C 249.867 261.246,249.237 259.834,250.171 258.899 C 250.722 258.348,252.312 259.226,254.591 261.339 M271.405 267.036 C 271.607 267.361,271.174 267.784,270.443 267.975 C 269.137 268.317,268.687 267.763,269.560 266.889 C 270.179 266.271,270.971 266.334,271.405 267.036 M44.073 267.780 C 44.073 268.147,43.455 268.447,42.698 268.447 C 41.942 268.447,41.509 268.147,41.736 267.780 C 41.963 267.412,42.582 267.112,43.111 267.112 C 43.640 267.112,44.073 267.412,44.073 267.780 M157.930 267.780 C 158.165 268.160,157.590 268.447,156.594 268.447 C 155.599 268.447,155.024 268.160,155.259 267.780 C 155.486 267.412,156.087 267.112,156.594 267.112 C 157.102 267.112,157.703 267.412,157.930 267.780 M118.395 270.764 C 116.859 272.874,116.194 272.881,116.194 270.785 C 116.194 269.441,116.525 269.115,117.894 269.115 C 119.581 269.115,119.585 269.128,118.395 270.764 M154.335 270.284 C 153.985 270.927,152.623 272.488,151.307 273.754 L 148.915 276.055 148.915 272.585 L 148.915 269.115 151.943 269.115 C 154.625 269.115,154.899 269.249,154.335 270.284 M233.723 269.333 C 233.723 269.452,232.972 270.256,232.053 271.119 L 230.384 272.687 230.384 270.901 C 230.384 269.441,230.689 269.115,232.053 269.115 C 232.972 269.115,233.723 269.213,233.723 269.333 M268.420 269.616 C 268.405 269.891,267.203 271.433,265.749 273.041 L 263.105 275.965 263.105 272.540 L 263.105 269.115 265.776 269.115 C 267.245 269.115,268.435 269.341,268.420 269.616 M347.245 269.346 C 347.245 270.685,344.705 271.691,344.388 270.477 C 344.102 269.385,344.350 269.115,345.638 269.115 C 346.522 269.115,347.245 269.219,347.245 269.346 M98.102 276.962 C 100.415 279.624,102.043 281.803,101.720 281.803 C 100.506 281.803,91.995 272.584,92.481 271.796 C 92.751 271.359,93.180 271.254,93.434 271.561 C 93.688 271.869,95.789 274.299,98.102 276.962 M214.599 280.134 C 217.037 283.079,216.680 282.855,211.566 278.231 C 207.495 274.551,205.889 272.675,206.174 271.934 C 206.597 270.832,208.162 272.356,214.599 280.134 M325.209 275.599 C 331.050 282.600,331.123 283.167,325.491 277.796 C 322.602 275.042,320.125 272.733,319.985 272.665 C 319.584 272.471,320.564 271.114,321.074 271.158 C 321.328 271.180,323.189 273.178,325.209 275.599 M94.841 279.593 C 100.312 285.222,100.152 285.211,92.952 279.472 C 88.446 275.881,88.192 275.472,89.833 274.468 C 89.842 274.462,92.096 276.769,94.841 279.593 M303.322 276.628 C 302.685 279.485,302.701 287.774,303.348 289.536 C 303.840 290.876,303.743 290.901,300.556 290.248 C 297.917 289.707,296.424 289.803,293.117 290.722 C 288.082 292.122,288.271 292.302,289.131 286.921 C 289.604 283.963,289.618 281.581,289.174 279.657 C 288.154 275.235,288.120 275.285,291.653 275.989 C 294.026 276.462,295.749 276.370,298.497 275.624 C 303.902 274.156,303.875 274.151,303.322 276.628 M322.353 278.612 C 328.012 284.220,327.639 284.722,321.536 279.713 C 318.781 277.452,316.528 275.345,316.528 275.030 C 316.528 273.580,318.499 274.793,322.353 278.612 M75.330 277.622 C 74.951 278.995,74.768 282.541,74.923 285.502 L 75.206 290.885 71.368 290.607 C 68.908 290.429,66.394 290.717,64.364 291.409 C 62.623 292.002,61.109 292.487,61.001 292.487 C 60.892 292.487,60.989 289.671,61.215 286.229 C 61.460 282.501,61.346 279.168,60.934 277.987 L 60.243 276.003 65.013 276.292 C 67.636 276.450,70.534 276.272,71.452 275.895 C 75.094 274.400,76.096 274.846,75.330 277.622 M189.420 276.628 C 189.214 277.454,188.854 279.332,188.621 280.801 L 188.197 283.472 199.941 283.472 C 206.401 283.472,211.686 283.442,211.686 283.404 C 211.686 283.366,209.594 281.713,207.038 279.731 C 202.190 275.972,201.553 275.138,203.506 275.105 C 204.149 275.095,206.482 277.070,208.691 279.495 C 212.920 284.137,214.218 284.661,225.042 286.097 C 225.960 286.218,227.162 286.499,227.713 286.721 C 235.074 289.678,235.294 289.485,230.451 284.307 C 226.646 280.238,228.672 281.442,234.103 286.477 C 239.176 291.181,239.592 291.387,243.591 291.167 C 245.332 291.071,246.355 291.603,248.599 293.772 C 250.150 295.271,254.721 298.665,258.757 301.314 C 278.283 314.134,293.708 335.265,299.973 357.777 C 301.064 361.698,301.760 363.177,302.399 362.936 C 306.437 361.415,306.656 361.539,306.073 365.023 C 305.386 369.133,305.392 372.171,306.096 375.860 C 306.623 378.618,306.580 378.743,305.245 378.319 C 303.870 377.883,303.837 378.058,303.726 386.432 C 303.596 396.172,303.512 397.851,302.833 404.341 C 302.537 407.169,302.623 410.021,303.050 411.563 L 303.756 414.111 301.889 413.701 C 300.083 413.304,299.973 413.440,298.549 417.831 C 297.739 420.328,296.091 424.474,294.887 427.045 L 292.697 431.720 296.047 436.060 L 299.397 440.401 295.681 436.823 C 290.157 431.503,288.912 433.703,294.046 439.711 L 297.490 443.740 293.590 440.463 C 290.504 437.868,289.567 437.381,289.096 438.125 C 288.132 439.649,288.352 440.212,290.954 442.877 C 292.314 444.269,293.121 445.409,292.748 445.409 C 292.375 445.409,291.206 444.508,290.150 443.406 C 287.985 441.146,286.819 440.884,286.192 442.519 C 285.903 443.273,286.574 444.466,288.259 446.192 C 291.271 449.276,290.925 449.483,287.417 446.695 L 284.835 444.643 282.832 447.196 C 281.731 448.601,278.903 451.771,276.547 454.242 C 271.540 459.494,271.404 459.350,281.630 459.590 L 289.136 459.766 284.401 465.297 C 279.566 470.945,279.432 471.315,280.866 475.052 C 281.218 475.969,280.986 476.005,279.059 475.334 L 276.848 474.563 271.735 480.105 L 266.621 485.647 266.229 482.723 C 266.013 481.115,265.636 476.865,265.392 473.279 C 264.844 465.229,265.104 465.356,258.393 469.848 C 252.478 473.807,246.759 476.854,239.733 479.789 C 237.346 480.786,234.917 482.024,234.336 482.539 C 233.756 483.054,233.093 483.287,232.863 483.058 C 231.748 481.943,220.675 485.624,218.493 487.835 C 214.581 491.798,207.973 492.097,206.545 488.376 C 206.288 487.705,204.454 487.479,199.273 487.479 C 191.095 487.479,191.245 487.300,191.813 496.397 L 192.153 501.836 187.062 501.870 C 184.261 501.888,180.793 502.161,179.354 502.476 C 176.936 503.006,176.778 502.952,177.272 501.775 C 178.200 499.562,178.514 489.799,177.705 488.288 C 176.969 486.912,177.039 486.895,181.800 487.276 C 188.277 487.794,187.193 486.972,179.416 485.465 C 175.935 484.791,169.827 483.148,165.842 481.813 L 158.598 479.387 155.523 482.889 L 152.448 486.390 151.984 481.073 L 151.520 475.756 148.492 474.150 C 146.827 473.266,143.161 470.957,140.345 469.019 C 134.229 464.809,131.814 465.345,133.414 470.556 C 134.333 473.551,134.246 473.685,131.957 472.815 C 129.637 471.933,128.926 472.427,123.539 478.665 L 119.199 483.692 118.759 473.733 C 118.517 468.255,118.139 462.195,117.918 460.267 L 117.518 456.761 121.589 456.761 L 125.661 456.761 121.525 452.254 C 114.087 444.149,105.292 429.393,102.194 419.822 C 100.785 415.467,100.688 417.531,101.782 428.576 C 102.363 434.439,102.838 439.854,102.838 440.611 C 102.838 441.850,79.621 442.216,78.208 441.000 C 78.068 440.879,79.748 438.741,81.942 436.250 C 87.091 430.401,87.495 429.628,86.659 427.229 C 85.814 424.806,86.148 424.486,88.555 425.413 C 90.570 426.189,93.019 424.116,98.619 416.893 C 101.599 413.049,99.938 408.441,93.717 403.295 C 91.021 401.065,88.815 398.960,88.815 398.618 C 88.815 396.978,91.063 398.385,94.491 402.170 L 98.271 406.344 97.816 404.007 C 97.541 402.592,96.280 400.550,94.621 398.834 C 92.684 396.829,92.089 395.791,92.592 395.288 C 93.094 394.785,93.819 395.191,95.065 396.672 L 96.828 398.767 96.828 396.786 C 96.828 392.494,91.939 389.710,90.975 393.453 C 90.190 396.501,85.993 397.007,83.502 394.355 L 81.904 392.654 85.746 392.654 L 89.589 392.654 89.158 390.692 C 88.730 388.746,88.743 388.737,90.751 389.495 C 94.624 390.957,95.876 388.730,96.402 379.444 C 96.646 375.141,97.011 370.868,97.213 369.950 C 97.518 368.565,97.196 368.075,95.321 367.071 C 87.563 362.920,91.673 348.812,100.272 350.074 C 102.112 350.344,102.428 350.126,103.306 347.976 C 110.383 330.659,127.416 309.203,139.934 301.836 C 143.429 299.779,143.881 299.278,143.692 297.665 C 143.540 296.365,143.734 295.929,144.360 296.167 C 144.920 296.379,145.852 295.228,146.912 293.016 C 149.892 286.795,155.455 284.844,159.410 288.633 L 161.279 290.424 168.286 288.203 L 175.292 285.982 175.274 283.058 C 175.264 281.449,175.022 279.190,174.736 278.037 L 174.217 275.941 178.427 276.271 C 180.743 276.453,183.689 276.297,184.975 275.924 C 188.929 274.777,189.845 274.922,189.420 276.628 M128.837 288.694 C 128.983 290.509,125.417 288.120,121.616 283.857 L 117.195 278.900 122.994 283.523 C 126.184 286.066,128.813 288.393,128.837 288.694 M355.966 288.709 C 355.190 289.485,351.483 286.250,347.690 281.486 C 345.873 279.204,346.355 279.474,351.125 283.415 C 355.041 286.649,356.466 288.208,355.966 288.709 M237.931 284.427 C 240.391 286.421,242.404 288.299,242.404 288.601 C 242.404 290.115,240.249 288.689,236.042 284.390 C 230.832 279.067,231.330 279.076,237.931 284.427 M124.875 291.613 C 124.875 293.701,124.132 292.999,115.241 282.507 C 114.479 281.608,116.336 283.093,119.366 285.806 C 122.396 288.519,124.875 291.133,124.875 291.613 M353.255 291.279 C 353.256 292.962,351.570 291.865,348.159 287.967 C 341.935 280.851,341.864 280.484,347.746 285.820 C 350.776 288.569,353.255 291.026,353.255 291.279 M256.144 288.987 C 255.418 289.712,255.210 288.812,255.641 286.811 L 256.072 284.808 256.300 286.705 C 256.425 287.749,256.355 288.776,256.144 288.987 M348.748 293.023 C 351.227 295.595,353.255 298.005,353.255 298.378 C 353.255 298.751,353.430 299.606,353.643 300.279 C 354.084 301.673,353.706 301.273,345.576 291.753 C 339.620 284.778,341.545 285.549,348.748 293.023 M119.261 291.987 C 123.941 296.784,126.271 300.051,126.186 301.701 C 126.173 301.959,125.497 301.373,124.684 300.399 C 123.871 299.425,120.855 295.895,117.982 292.553 C 111.471 284.979,112.136 284.684,119.261 291.987 M273.713 288.507 C 277.313 292.107,277.101 297.690,273.223 301.406 C 269.522 304.951,264.370 304.820,261.730 301.113 C 260.931 299.991,259.561 298.800,258.686 298.468 C 256.794 297.748,256.556 295.826,258.358 295.826 C 259.162 295.826,259.780 295.194,260.058 294.087 C 261.764 287.291,269.383 284.177,273.713 288.507 M114.858 293.823 C 117.197 296.462,118.579 298.497,118.030 298.497 C 117.216 298.497,112.267 292.831,110.595 289.983 C 109.487 288.096,110.946 289.410,114.858 293.823 M265.698 291.741 C 262.829 294.610,262.443 295.826,264.401 295.826 C 266.278 295.826,266.851 297.217,265.408 298.271 C 263.213 299.876,265.674 301.649,268.482 300.486 C 272.862 298.672,274.502 293.002,271.362 290.533 C 269.003 288.677,268.697 288.742,265.698 291.741 M40.067 295.516 C 40.067 301.058,40.105 301.195,41.438 300.482 C 45.021 298.564,46.331 293.587,43.863 291.268 C 40.791 288.382,40.067 289.191,40.067 295.516 M151.340 292.591 C 147.873 296.076,148.917 296.518,154.254 293.825 C 157.675 292.098,158.233 291.585,157.566 290.782 C 156.195 289.130,154.208 289.708,151.340 292.591 M346.578 298.031 C 346.578 299.340,344.874 297.860,341.697 293.793 L 338.329 289.482 342.453 293.468 C 344.722 295.660,346.578 297.714,346.578 298.031 M134.835 294.251 C 137.833 297.657,138.077 298.342,136.510 298.943 C 135.815 299.210,134.780 298.524,133.457 296.919 C 129.663 292.317,128.665 293.952,130.906 301.100 C 133.601 309.701,127.411 312.078,121.733 304.623 C 117.720 299.353,119.446 297.932,123.837 302.891 C 128.096 307.701,130.134 306.205,127.546 300.167 C 124.011 291.920,129.128 287.767,134.835 294.251 M193.197 291.863 C 111.669 298.328,76.629 396.690,135.734 453.170 C 190.875 505.862,281.212 474.345,292.918 398.331 C 301.871 340.189,252.224 287.182,193.197 291.863 M329.645 304.679 C 330.285 311.911,330.676 317.942,330.513 318.082 C 330.350 318.222,324.683 318.155,317.920 317.933 L 305.623 317.529 310.455 311.922 C 315.381 306.207,315.512 305.855,314.092 302.155 C 313.752 301.269,313.938 301.094,314.924 301.372 C 318.882 302.488,318.737 302.565,323.539 296.839 C 326.110 293.773,328.274 291.325,328.347 291.398 C 328.420 291.471,329.004 297.447,329.645 304.679 M102.790 316.361 L 102.838 318.531 93.656 318.472 C 88.606 318.440,83.063 318.215,81.338 317.972 L 78.202 317.529 82.882 311.942 C 85.456 308.869,87.434 306.014,87.278 305.598 C 85.869 301.840,85.892 301.781,88.598 302.197 C 91.123 302.585,91.205 302.527,95.826 297.052 L 100.501 291.513 101.621 302.852 C 102.237 309.088,102.763 315.167,102.790 316.361 M357.309 295.326 C 357.408 298.488,358.501 299.664,358.551 296.661 C 358.577 295.100,358.297 293.823,357.930 293.823 C 357.563 293.823,357.283 294.499,357.309 295.326 M57.369 300.544 C 62.995 306.170,59.237 310.939,51.366 308.162 C 45.960 306.254,44.992 309.290,49.876 312.830 C 52.964 315.069,52.993 315.116,52.127 316.486 C 50.798 318.586,43.406 311.725,43.406 308.393 C 43.406 304.151,45.980 303.109,51.870 304.966 C 56.962 306.571,58.117 305.362,54.591 302.119 C 52.209 299.927,51.576 298.563,52.509 297.631 C 53.108 297.031,54.975 298.149,57.369 300.544 M283.582 298.664 C 291.087 303.801,288.214 310.793,279.770 307.942 C 275.344 306.447,274.457 306.537,274.457 308.484 C 274.457 309.708,278.600 313.856,279.823 313.856 C 280.177 313.856,280.467 314.457,280.467 315.192 C 280.467 317.054,279.124 316.860,275.917 314.537 C 268.132 308.898,270.536 301.500,279.203 304.427 C 285.119 306.424,286.394 304.996,282.078 301.206 C 278.391 297.969,279.595 295.936,283.582 298.664 M65.109 309.296 C 66.578 311.165,68.530 313.631,69.446 314.777 L 71.113 316.861 68.343 314.687 C 64.793 311.900,61.436 308.077,61.436 306.822 C 61.436 305.162,62.331 305.765,65.109 309.296 M294.522 310.889 C 296.789 313.664,298.511 316.069,298.348 316.232 C 297.920 316.660,289.149 307.452,289.149 306.576 C 289.149 304.928,290.609 306.101,294.522 310.889 M280.553 310.137 C 282.598 311.005,286.895 315.083,292.166 321.159 C 293.261 322.421,291.342 321.069,287.902 318.154 C 276.110 308.163,276.243 308.309,280.553 310.137 M52.859 310.518 C 53.739 310.518,61.035 317.500,63.674 320.868 C 65.513 323.215,65.160 323.020,60.763 319.265 C 52.114 311.876,49.711 309.621,50.973 310.076 C 51.646 310.319,52.494 310.518,52.859 310.518 M293.159 315.470 C 298.174 320.811,297.403 320.648,290.987 315.010 C 288.509 312.833,286.651 310.777,286.858 310.442 C 287.397 309.570,288.286 310.280,293.159 315.470 M64.805 315.333 C 67.176 317.982,68.664 319.881,68.114 319.554 C 66.223 318.432,58.765 311.690,58.765 311.104 C 58.765 309.482,60.919 310.991,64.805 315.333 M286.497 321.644 C 288.873 324.091,290.057 325.519,289.127 324.816 C 284.250 321.132,281.803 318.883,281.803 318.085 C 281.803 316.802,281.768 316.776,286.497 321.644 M55.315 318.472 C 55.941 318.807,57.784 320.685,59.410 322.645 C 62.361 326.201,62.143 326.131,57.095 321.900 C 53.320 318.735,52.362 316.891,55.315 318.472 M309.397 331.878 C 312.760 334.535,314.175 336.561,312.669 336.561 C 312.382 336.561,310.204 334.570,307.827 332.136 C 303.120 327.316,303.538 327.247,309.397 331.878 M85.476 336.347 C 85.476 338.044,84.272 337.193,80.382 332.746 L 76.461 328.264 80.968 331.864 C 83.447 333.845,85.476 335.862,85.476 336.347 M85.614 341.705 C 88.825 344.636,88.873 345.071,85.859 343.925 C 84.252 343.314,76.272 335.383,74.158 332.297 C 73.226 330.936,79.104 335.763,85.614 341.705 M313.482 341.389 L 316.861 344.548 314.405 343.726 C 312.198 342.988,301.836 332.949,301.836 331.549 C 301.836 331.053,307.952 336.221,313.482 341.389 M304.341 339.214 C 306.636 341.170,308.514 343.027,308.514 343.339 C 308.514 345.053,306.104 343.288,301.763 338.397 C 299.074 335.367,297.614 333.511,298.520 334.272 C 299.426 335.034,302.045 337.257,304.341 339.214 M76.621 339.798 C 78.912 341.773,80.630 343.643,80.439 343.953 C 79.789 345.004,78.242 343.814,74.016 339.013 C 69.540 333.928,69.956 334.054,76.621 339.798 M94.461 342.731 C 98.326 348.250,94.005 352.121,86.811 349.583 C 81.967 347.874,81.046 349.792,85.142 353.060 C 88.896 356.055,87.851 358.426,83.863 355.962 C 79.587 353.319,78.109 348.680,80.775 346.268 C 82.156 345.017,83.369 345.079,88.644 346.666 C 93.780 348.212,93.867 344.243,88.762 341.338 C 86.950 340.308,86.261 338.670,87.230 337.700 C 87.791 337.140,93.163 340.878,94.461 342.731 M305.275 346.096 C 307.255 349.796,304.258 347.798,300.192 342.708 L 295.550 336.895 300.067 340.849 C 302.551 343.025,304.895 345.386,305.275 346.096 M318.911 339.264 C 327.055 344.867,324.926 351.887,315.800 349.520 C 313.277 348.866,311.029 348.515,310.804 348.739 C 309.986 349.558,311.315 351.921,313.229 353.052 C 315.345 354.301,315.899 356.594,314.086 356.594 C 310.848 356.594,306.624 350.882,307.445 347.612 C 308.175 344.701,310.108 344.256,314.933 345.886 C 322.031 348.283,322.887 344.165,316.027 340.628 C 314.515 339.848,313.907 337.229,315.239 337.229 C 315.632 337.229,317.284 338.144,318.911 339.264 M74.290 343.190 C 77.052 345.805,78.474 348.656,76.962 348.544 C 76.686 348.524,74.529 346.045,72.167 343.035 C 67.863 337.550,68.373 337.587,74.290 343.190 M329.749 350.187 C 330.741 350.703,332.304 351.937,333.222 352.929 C 334.140 353.921,335.589 355.002,336.443 355.332 C 338.206 356.013,338.192 358.378,336.426 358.081 C 335.704 357.959,335.198 358.536,334.921 359.797 C 333.443 366.529,325.828 369.596,321.238 365.309 C 315.041 359.520,322.436 346.382,329.749 350.187 M129.589 353.845 C 133.237 356.051,134.129 356.337,135.553 355.758 C 138.301 354.641,147.504 354.865,151.784 356.153 C 171.235 362.005,170.247 400.460,150.492 406.405 C 146.394 407.639,138.559 407.604,134.843 406.337 C 122.398 402.091,116.556 378.628,124.548 364.989 C 126.732 361.262,126.678 360.949,123.534 359.182 C 120.674 357.575,120.603 357.091,122.639 353.088 C 123.859 350.691,124.486 350.760,129.589 353.845 M324.462 355.180 C 321.469 358.174,321.017 361.084,323.205 363.272 C 325.130 365.196,326.369 364.941,329.294 362.015 C 332.163 359.147,332.549 357.930,330.590 357.930 C 328.695 357.930,328.147 356.537,329.614 355.450 C 330.862 354.526,330.861 354.491,329.589 353.548 C 327.732 352.173,327.348 352.295,324.462 355.180 M97.173 354.701 C 93.522 357.573,92.838 362.700,95.917 364.103 C 97.943 365.026,97.951 365.016,99.515 359.369 C 101.407 352.541,100.986 351.702,97.173 354.701 M198.560 356.219 C 207.458 357.922,208.574 359.005,206.576 364.001 C 205.333 367.105,204.872 367.151,197.016 364.959 C 189.198 362.777,181.919 364.040,180.340 367.851 C 178.510 372.270,180.227 373.998,191.517 379.097 C 203.997 384.733,207.380 389.094,205.624 397.281 C 204.015 404.783,199.263 407.688,188.648 407.660 C 174.789 407.624,170.020 404.480,174.617 398.409 C 175.542 397.187,175.739 397.185,181.620 398.328 C 191.255 400.199,196.327 398.909,196.327 394.588 C 196.327 392.158,194.130 390.522,184.307 385.643 C 171.866 379.462,170.032 377.478,170.084 370.257 C 170.172 358.243,181.066 352.872,198.560 356.219 M250.736 360.712 C 276.453 361.710,275.082 362.104,240.551 363.640 C 210.063 364.996,212.128 365.146,213.097 361.638 L 213.804 359.077 221.927 359.493 C 226.395 359.721,239.359 360.270,250.736 360.712 M78.255 365.109 C 77.637 368.484,77.675 374.487,78.332 377.045 L 78.867 379.132 76.212 378.423 C 74.159 377.875,72.447 377.954,68.665 378.772 C 62.795 380.040,63.140 380.285,64.125 375.539 C 64.882 371.894,64.726 366.961,63.776 364.512 C 63.400 363.541,63.692 363.488,66.330 364.051 C 68.522 364.518,70.255 364.433,72.885 363.730 C 78.651 362.188,78.784 362.222,78.255 365.109 M141.569 364.338 C 141.569 364.924,142.121 366.201,142.795 367.176 C 145.052 370.438,145.052 370.562,142.796 372.622 C 139.913 375.255,139.511 375.182,136.343 371.452 L 133.650 368.280 132.477 370.952 C 129.115 378.613,131.678 393.615,136.997 397.402 C 149.189 406.083,161.668 385.764,153.802 370.039 C 151.200 364.839,141.569 360.350,141.569 364.338 M46.112 375.033 C 48.664 377.095,50.751 379.048,50.751 379.374 C 50.751 380.893,48.684 379.604,44.741 375.626 C 39.456 370.293,39.970 370.071,46.112 375.033 M235.532 373.984 C 253.238 374.704,270.216 375.335,273.261 375.387 L 278.798 375.481 272.120 376.024 C 261.907 376.853,219.722 378.646,210.596 378.638 L 202.494 378.631 195.571 375.276 L 188.648 371.921 195.993 372.299 C 200.033 372.507,217.826 373.265,235.532 373.984 M348.850 376.787 L 346.293 379.618 348.105 380.255 C 350.086 380.952,350.509 382.452,348.898 383.071 C 347.436 383.631,348.960 385.309,350.931 385.309 C 352.617 385.309,356.545 381.296,356.673 379.443 C 357.073 373.659,352.943 372.257,348.850 376.787 M331.253 391.298 C 330.845 391.550,331.364 392.655,332.535 394.025 C 335.635 397.651,334.884 397.934,331.363 394.466 C 329.067 392.205,327.634 391.319,326.273 391.319 L 324.378 391.319 327.975 395.492 C 333.889 402.352,333.837 402.623,327.718 396.828 C 321.310 390.759,320.022 390.293,318.531 393.504 C 317.278 396.200,315.269 396.563,312.176 394.651 C 309.159 392.786,309.223 391.834,312.354 392.023 C 316.947 392.299,317.380 392.144,316.937 390.381 C 316.555 388.858,316.664 388.793,319.068 389.116 C 321.534 389.446,321.736 389.307,326.577 383.933 L 331.553 378.411 331.746 384.642 C 331.863 388.402,331.667 391.042,331.253 391.298 M54.089 382.303 C 57.483 384.058,59.889 387.812,58.500 389.185 C 57.422 390.250,57.309 390.239,56.610 389.004 C 53.393 383.328,49.888 384.282,52.398 390.150 C 52.798 391.086,52.563 391.319,51.222 391.319 C 48.153 391.319,46.847 384.245,49.564 382.342 C 51.395 381.059,51.679 381.057,54.089 382.303 M242.211 388.096 C 258.817 388.917,272.305 389.687,272.185 389.807 C 272.065 389.927,262.385 390.456,250.675 390.983 C 238.964 391.509,225.443 392.139,220.629 392.382 L 211.876 392.825 211.113 390.637 C 210.128 387.809,210.148 386.649,211.185 386.623 C 211.644 386.612,225.606 387.274,242.211 388.096 M43.693 390.575 C 43.894 390.901,43.461 391.323,42.730 391.514 C 41.424 391.856,40.974 391.302,41.848 390.428 C 42.466 389.810,43.259 389.873,43.693 390.575 M346.182 393.656 C 345.581 394.574,345.008 395.326,344.909 395.326 C 344.811 395.326,344.586 394.574,344.411 393.656 C 344.143 392.253,344.346 391.987,345.684 391.987 C 347.229 391.987,347.244 392.036,346.182 393.656 M328.106 402.337 L 330.877 405.676 326.133 401.517 C 320.290 396.393,319.619 395.599,320.258 394.565 C 320.773 393.731,321.845 394.793,328.106 402.337 M323.294 403.005 C 325.611 405.576,326.915 407.209,326.191 406.634 C 325.467 406.058,323.072 404.115,320.868 402.314 C 318.664 400.514,316.756 398.976,316.628 398.897 C 316.499 398.818,316.594 398.429,316.839 398.033 C 317.500 396.964,318.638 397.840,323.294 403.005 M75.405 400.501 C 74.608 403.931,74.645 410.881,75.472 413.054 C 76.029 414.521,75.977 414.777,75.185 414.473 C 72.348 413.384,69.254 413.328,65.469 414.298 C 63.191 414.882,61.277 415.359,61.215 415.359 C 61.153 415.359,61.102 411.741,61.102 407.319 L 61.102 399.278 64.441 399.663 C 66.464 399.895,69.095 399.675,71.119 399.105 C 76.127 397.691,76.062 397.670,75.405 400.501 M250.417 402.371 C 262.721 402.940,273.065 403.482,273.403 403.577 C 273.742 403.672,261.722 404.265,246.692 404.896 C 231.663 405.527,216.533 406.231,213.072 406.461 L 206.778 406.878 208.122 404.941 C 208.861 403.876,209.671 402.439,209.921 401.747 C 210.348 400.571,210.954 400.517,219.212 400.913 C 224.071 401.147,238.114 401.803,250.417 402.371 M352.475 407.679 C 354.738 409.516,356.590 411.244,356.592 411.519 C 356.599 412.992,354.389 411.508,350.233 407.249 C 345.284 402.179,345.826 402.283,352.475 407.679 M350.480 411.553 C 352.433 413.561,353.123 414.694,352.592 415.022 C 352.158 415.290,351.567 415.250,351.278 414.933 C 342.653 405.470,342.041 402.878,350.480 411.553 M352.679 420.933 C 354.952 425.299,353.623 424.383,347.800 417.569 C 339.779 408.184,339.590 407.788,345.788 413.366 C 348.843 416.115,351.944 419.520,352.679 420.933 M346.313 421.177 C 345.769 421.710,341.546 417.349,339.063 413.689 C 338.315 412.588,339.762 413.703,342.277 416.169 C 344.792 418.634,346.608 420.888,346.313 421.177 M40.067 418.653 C 40.067 424.551,40.509 425.073,43.120 422.256 C 46.392 418.725,45.715 413.924,41.882 413.478 L 40.067 413.267 40.067 418.653 M329.490 426.248 C 330.073 432.420,330.551 438.355,330.551 439.436 L 330.551 441.402 324.708 441.399 C 321.494 441.397,315.944 441.202,312.375 440.966 L 305.885 440.536 308.702 437.232 C 313.939 431.092,315.270 429.080,314.893 427.881 C 313.595 423.761,313.558 423.960,315.488 424.693 C 318.433 425.813,318.803 425.597,323.520 420.007 C 326.012 417.055,328.135 414.726,328.239 414.832 C 328.343 414.938,328.906 420.075,329.490 426.248 M357.512 417.674 C 357.305 418.213,357.441 419.490,357.814 420.512 C 358.463 422.290,358.495 422.248,358.545 419.533 C 358.599 416.644,358.190 415.908,357.512 417.674 M56.684 423.205 C 63.295 429.190,59.914 434.446,51.393 431.430 C 45.742 429.430,44.850 432.851,50.115 436.336 C 51.614 437.328,52.721 438.498,52.575 438.936 C 51.513 442.128,43.153 435.131,43.525 431.361 C 43.919 427.360,46.322 426.336,51.286 428.054 C 57.187 430.096,58.846 428.431,54.424 424.903 C 52.079 423.032,51.290 420.701,53.003 420.701 C 53.506 420.701,55.163 421.828,56.684 423.205 M66.428 434.224 C 72.210 441.360,72.227 441.573,66.572 436.077 C 61.957 431.592,60.438 429.382,61.970 429.382 C 62.264 429.382,64.270 431.561,66.428 434.224 M55.065 434.725 C 55.144 434.725,57.587 437.340,60.493 440.538 C 66.742 447.413,66.109 447.172,56.928 439.181 C 49.282 432.526,49.090 432.288,52.502 433.714 C 53.833 434.270,54.986 434.725,55.065 434.725 M66.985 441.068 C 68.911 443.521,68.701 443.415,64.424 439.776 C 61.862 437.597,59.507 435.595,59.190 435.327 C 58.873 435.060,58.833 434.487,59.100 434.054 C 59.642 433.177,63.446 436.561,66.985 441.068 M59.116 445.551 C 63.962 450.564,63.686 450.506,57.262 445.161 C 53.738 442.229,52.617 440.735,53.941 440.735 C 54.226 440.735,56.555 442.902,59.116 445.551 M311.117 456.582 C 312.365 457.640,313.265 458.870,313.116 459.316 C 312.967 459.764,310.753 457.976,308.176 455.327 C 303.727 450.754,304.757 451.193,311.117 456.582 M82.738 456.553 C 84.355 457.988,85.555 459.530,85.405 459.979 C 85.253 460.434,83.067 458.676,80.463 456.005 C 75.825 451.248,77.111 451.558,82.738 456.553 M310.716 462.019 C 316.352 466.886,317.393 468.637,313.401 466.537 C 311.635 465.608,309.195 463.207,302.832 456.137 L 300.167 453.175 302.504 455.061 C 303.790 456.098,307.485 459.229,310.716 462.019 M81.992 461.743 C 85.769 464.977,88.745 467.738,88.606 467.877 C 87.619 468.864,82.910 465.325,78.079 459.968 C 71.949 453.170,72.017 453.200,81.992 461.743 M307.856 466.663 C 306.990 466.952,299.566 460.010,298.338 457.763 C 297.937 457.028,300.097 458.669,303.139 461.410 C 306.181 464.150,308.304 466.514,307.856 466.663 M80.109 467.070 C 79.686 467.493,78.270 466.562,76.070 464.412 C 70.005 458.487,69.553 456.937,75.310 461.808 C 78.850 464.803,80.532 466.647,80.109 467.070 M320.548 463.865 C 326.974 469.670,323.426 475.359,315.192 472.454 C 309.837 470.565,308.636 472.475,312.946 476.028 C 315.278 477.950,315.727 480.134,313.790 480.134 C 312.310 480.134,307.179 474.356,307.179 472.691 C 307.179 468.611,310.311 467.172,314.961 469.115 C 320.815 471.561,322.308 469.214,317.558 465.034 C 315.336 463.080,314.471 461.871,314.757 461.124 C 315.276 459.772,316.834 460.510,320.548 463.865 M77.363 471.138 C 77.190 472.032,76.097 471.054,73.178 467.393 C 67.407 460.154,67.364 459.941,72.733 465.181 C 75.941 468.312,77.517 470.341,77.363 471.138 M91.056 462.928 C 98.797 468.970,96.746 476.156,88.147 473.122 C 82.409 471.097,80.757 473.019,85.183 476.569 C 88.211 478.999,87.941 481.420,84.822 479.807 C 75.926 475.206,78.778 465.965,87.916 469.783 C 93.637 472.173,94.632 468.163,89.157 464.780 C 87.794 463.937,86.811 462.794,86.811 462.049 C 86.811 460.230,87.884 460.452,91.056 462.928 M305.424 470.803 C 304.917 471.310,303.651 470.199,301.062 466.977 C 295.691 460.294,295.734 459.857,301.229 465.262 C 304.713 468.688,305.931 470.296,305.424 470.803 M103.292 474.600 C 104.093 475.124,105.213 476.260,105.780 477.126 C 106.348 477.992,107.495 478.798,108.331 478.916 C 109.333 479.059,109.850 479.586,109.850 480.467 C 109.850 481.322,109.463 481.740,108.775 481.628 C 108.046 481.510,107.328 482.426,106.545 484.478 C 103.662 492.027,95.003 493.374,91.672 486.791 C 87.884 479.304,96.561 470.200,103.292 474.600 M330.485 473.756 C 331.514 474.288,332.855 475.485,333.465 476.416 C 334.075 477.347,335.322 478.297,336.235 478.526 C 338.178 479.013,338.586 481.469,336.724 481.469 C 335.969 481.469,335.014 482.640,334.041 484.761 C 331.278 490.784,325.862 492.524,321.580 488.764 C 314.614 482.647,322.377 469.563,330.485 473.756 M96.762 478.632 C 93.499 481.675,92.990 484.920,95.462 486.921 C 97.655 488.697,98.673 488.463,101.635 485.500 C 104.319 482.817,104.484 481.469,102.131 481.469 C 101.280 481.469,100.835 481.010,100.835 480.134 C 100.835 479.392,101.280 478.798,101.836 478.798 C 103.250 478.798,103.081 477.639,101.546 476.818 C 99.737 475.850,99.749 475.845,96.762 478.632 M324.119 478.512 C 321.522 481.265,321.091 484.564,323.091 486.374 C 325.028 488.127,327.173 487.707,329.637 485.094 C 332.192 482.386,332.441 481.469,330.622 481.469 C 329.927 481.469,329.176 480.994,328.953 480.413 C 328.380 478.920,328.425 478.798,329.549 478.798 C 330.879 478.798,330.837 477.047,329.495 476.532 C 327.446 475.746,326.345 476.151,324.119 478.512 M306.039 488.314 C 305.382 492.765,305.385 495.833,306.049 499.008 L 306.575 501.522 303.037 501.110 C 300.728 500.841,298.117 501.060,295.521 501.741 C 290.728 502.997,290.951 503.175,291.881 498.837 C 292.643 495.285,292.440 489.546,291.472 487.235 C 291.019 486.155,291.163 486.058,292.553 486.507 C 295.019 487.302,300.814 486.967,303.288 485.887 C 306.555 484.460,306.602 484.501,306.039 488.314 M78.327 487.980 C 77.678 491.043,77.637 497.122,78.248 499.833 L 78.699 501.836 73.573 501.836 C 70.754 501.836,67.279 502.103,65.852 502.429 L 63.256 503.021 63.839 500.425 C 64.567 497.184,64.613 490.287,63.919 488.389 C 63.414 487.008,63.534 486.972,67.592 487.272 C 70.389 487.479,72.676 487.248,74.457 486.576 C 78.633 485.003,78.936 485.113,78.327 487.980 M210.195 487.591 C 210.772 488.167,211.372 488.179,212.499 487.636 C 213.931 486.946,213.883 486.899,211.720 486.857 C 209.963 486.822,209.601 486.997,210.195 487.591 M278.464 502.230 C 278.464 503.702,276.500 502.576,273.408 499.332 C 267.457 493.086,267.336 492.492,272.955 497.102 C 275.985 499.588,278.464 501.896,278.464 502.230 M160.100 498.462 C 165.451 502.727,165.304 502.556,164.034 503.044 C 163.498 503.249,161.101 501.309,158.191 498.313 C 152.783 492.748,152.948 492.761,160.100 498.462 M274.429 503.957 C 275.119 504.578,275.195 505.039,274.688 505.545 C 274.182 506.052,272.840 504.938,270.070 501.710 C 263.958 494.589,263.781 494.189,268.783 498.786 C 271.353 501.149,273.894 503.475,274.429 503.957 M156.411 500.650 C 160.865 505.070,161.812 506.484,160.031 506.059 C 158.991 505.811,150.521 496.160,151.343 496.160 C 151.642 496.160,153.922 498.181,156.411 500.650 M351.511 497.483 C 348.246 498.802,346.227 503.084,348.581 503.699 C 350.227 504.130,350.341 505.968,348.748 506.384 C 348.105 506.552,349.150 506.725,351.070 506.767 C 356.361 506.885,359.135 501.168,355.296 498.060 C 353.606 496.691,353.508 496.676,351.511 497.483 M121.257 500.194 C 118.723 502.999,118.643 504.174,120.985 504.174 C 122.031 504.174,122.276 504.493,122.010 505.509 C 121.474 507.559,126.390 507.433,127.842 505.361 C 131.843 499.649,125.937 495.014,121.257 500.194 M235.326 499.766 C 232.723 502.369,232.372 504.174,234.469 504.174 C 235.553 504.174,235.801 504.484,235.533 505.509 C 234.872 508.034,240.751 507.393,242.095 504.793 C 245.056 499.067,239.873 495.219,235.326 499.766 " stroke="none" fill="#000000" fill-rule="evenodd"></path></g></svg>